<svg width="5522" height="5043" viewBox="0 0 5522 5043" fill="none" xmlns="http://www.w3.org/2000/svg">
<rect width="5512.69" height="3587.34" transform="matrix(0.999999 -0.00115347 0.00241172 0.999997 0.662354 6.80228)" fill="#E1E8E7"/>
<g filter="url(#filter0_i_0_1)">
<rect x="3" y="2975" width="5518" height="131" fill="#BB7D44"/>
</g>
<g filter="url(#filter1_i_0_1)">
<rect x="3" y="2789" width="5518" height="186" fill="#D9A76C"/>
</g>
<g filter="url(#filter2_i_0_1)">
<path d="M3 2479H2762.72H5521V2541H3V2479Z" fill="#CD975A"/>
</g>
<g filter="url(#filter3_i_0_1)">
<rect x="3" y="2417" width="5518" height="62" fill="#D7AA6E"/>
</g>
<g filter="url(#filter4_i_0_1)">
<rect x="3" y="2376" width="5518" height="41" fill="#C7935D"/>
</g>
<g filter="url(#filter5_i_0_1)">
<rect x="3" y="2345" width="5518" height="31" fill="#D6A566"/>
</g>
<g filter="url(#filter6_i_0_1)">
<rect x="3" y="3106" width="5518" height="137" fill="#8F5C31"/>
</g>
<g filter="url(#filter7_i_0_1)">
<path d="M3 2653H2298L2269.31 2789H3V2653Z" fill="#CD975A"/>
</g>
<g filter="url(#filter8_i_0_1)">
<path d="M4745 2376.33H5412V2417.33H4762.52L4745 2376.33Z" fill="#CD975A"/>
</g>
<g filter="url(#filter9_i_0_1)">
<path d="M3765 2541H5521V2653H3832.01L3765 2541Z" fill="#E0AB6C"/>
</g>
<g filter="url(#filter10_i_0_1)">
<rect x="3149" y="2653" width="2373" height="136" fill="#D2A469"/>
</g>
<g filter="url(#filter11_d_0_1)">
<path d="M3 2482H1268L1249.22 2544H3V2482Z" fill="#C7935D"/>
</g>
<g filter="url(#filter12_i_0_1)">
<path d="M3 2541H3783.91L3829 2653H3V2541Z" fill="#D9A86E"/>
</g>
<g filter="url(#filter13_df_0_1)">
<path d="M2171.67 2378.46C2175.49 2367.03 2186.18 2359.33 2198.23 2359.33H3351.41C3363.63 2359.33 3374.44 2367.26 3378.11 2378.92L3542.53 2900.92C3548.21 2918.96 3534.74 2937.33 3515.82 2937.33H2023.87C2004.75 2937.33 1991.26 2918.59 1997.32 2900.46L2171.67 2378.46Z" fill="#2C8A1C"/>
<path d="M2198.23 2362.83H3351.41C3362.1 2362.83 3371.56 2369.77 3374.77 2379.97L3539.19 2901.97C3544.17 2917.76 3532.38 2933.83 3515.82 2933.83H2023.87C2007.14 2933.83 1995.34 2917.43 2000.64 2901.57L2174.99 2379.57C2178.33 2369.57 2187.69 2362.83 2198.23 2362.83Z" stroke="#D1DF31" stroke-opacity="0.49" stroke-width="7"/>
</g>
<g filter="url(#filter14_i_0_1)">
<rect x="3" y="3243" width="5518" height="1800" fill="#343425"/>
</g>
<g filter="url(#filter15_d_0_1)">
<path d="M1668.5 2783.23C1668.5 2786.06 1667.94 2788.51 1666.26 2790.71C1664.56 2792.95 1661.47 2795.21 1655.88 2797.21C1644.6 2801.23 1624.11 2803.83 1587.5 2803.83C1550.87 2803.83 1531.43 2801.22 1521.2 2797.23C1516.15 2795.27 1513.6 2793.06 1512.24 2790.89C1510.88 2788.72 1510.5 2786.24 1510.5 2783.23C1510.5 2780.21 1510.85 2777.5 1512.24 2775.02C1513.62 2772.57 1516.18 2770.05 1521.17 2767.77C1531.3 2763.13 1550.69 2759.83 1587.5 2759.83C1624.3 2759.83 1644.74 2763.13 1655.91 2767.8C1661.45 2770.12 1664.53 2772.7 1666.25 2775.21C1667.96 2777.7 1668.5 2780.38 1668.5 2783.23Z" stroke="#6D4625" stroke-opacity="0.2" stroke-width="5" shape-rendering="crispEdges"/>
</g>
<g filter="url(#filter16_d_0_1)">
<path d="M1841.5 2737.53C1841.5 2739.86 1841 2741.84 1839.51 2743.64C1837.97 2745.51 1835.13 2747.44 1829.9 2749.15C1819.39 2752.6 1800.28 2754.83 1766.14 2754.83C1731.98 2754.83 1713.84 2752.6 1704.3 2749.18C1699.59 2747.49 1697.26 2745.6 1696.05 2743.83C1694.84 2742.06 1694.5 2740.06 1694.5 2737.53C1694.5 2734.99 1694.82 2732.77 1696.06 2730.75C1697.29 2728.73 1699.63 2726.59 1704.28 2724.63C1713.72 2720.66 1731.8 2717.83 1766.14 2717.83C1800.45 2717.83 1819.52 2720.66 1829.94 2724.66C1835.1 2726.65 1837.93 2728.85 1839.49 2730.94C1841.02 2732.99 1841.5 2735.17 1841.5 2737.53Z" stroke="#6D4625" stroke-opacity="0.2" stroke-width="5" shape-rendering="crispEdges"/>
</g>
<g filter="url(#filter17_i_0_1)">
<path fill-rule="evenodd" clip-rule="evenodd" d="M1729.98 2660.41C1733.87 2659.78 1737.92 2659.45 1742.09 2659.45C1770.99 2659.45 1794.42 2675.51 1794.42 2695.32C1794.42 2715.14 1770.99 2731.2 1742.09 2731.2C1740.37 2731.2 1738.67 2731.14 1736.99 2731.03C1745.42 2737.82 1756.11 2741.88 1767.74 2741.88C1794.95 2741.88 1817 2719.67 1817 2692.27C1817 2664.87 1794.95 2642.65 1767.74 2642.65C1752.58 2642.65 1739.02 2649.56 1729.98 2660.41Z" fill="#192E77"/>
</g>
<g filter="url(#filter18_if_0_1)">
<mask id="path-21-inside-1_0_1" fill="white">
<path fill-rule="evenodd" clip-rule="evenodd" d="M1763.84 2600.69C1763.94 2600.4 1763.99 2600.12 1763.99 2599.83C1763.99 2591.82 1725.37 2585.33 1677.73 2585.33C1630.1 2585.33 1591.48 2591.82 1591.48 2599.83C1591.48 2600.12 1591.53 2600.4 1591.63 2600.69C1591.53 2601.11 1591.48 2601.56 1591.48 2602.02V2765.58C1591.48 2768.89 1594.17 2771.58 1597.48 2771.58H1642.62H1709.03H1757.99C1761.3 2771.58 1763.99 2768.89 1763.99 2765.58V2602.02C1763.99 2601.56 1763.94 2601.11 1763.84 2600.69ZM1763.84 2600.69C1763.24 2598.01 1760.85 2596.02 1757.99 2596.02H1597.48C1594.62 2596.02 1592.23 2598.01 1591.63 2600.69C1594.26 2608.3 1631.8 2614.33 1677.73 2614.33C1723.66 2614.33 1761.21 2608.3 1763.84 2600.69Z"/>
</mask>
<path fill-rule="evenodd" clip-rule="evenodd" d="M1763.84 2600.69C1763.94 2600.4 1763.99 2600.12 1763.99 2599.83C1763.99 2591.82 1725.37 2585.33 1677.73 2585.33C1630.1 2585.33 1591.48 2591.82 1591.48 2599.83C1591.48 2600.12 1591.53 2600.4 1591.63 2600.69C1591.53 2601.11 1591.48 2601.56 1591.48 2602.02V2765.58C1591.48 2768.89 1594.17 2771.58 1597.48 2771.58H1642.62H1709.03H1757.99C1761.3 2771.58 1763.99 2768.89 1763.99 2765.58V2602.02C1763.99 2601.56 1763.94 2601.11 1763.84 2600.69ZM1763.84 2600.69C1763.24 2598.01 1760.85 2596.02 1757.99 2596.02H1597.48C1594.62 2596.02 1592.23 2598.01 1591.63 2600.69C1594.26 2608.3 1631.8 2614.33 1677.73 2614.33C1723.66 2614.33 1761.21 2608.3 1763.84 2600.69Z" fill="#1C3692"/>
<path d="M1762.99 2599.83C1762.99 2600 1762.96 2600.18 1762.9 2600.36L1764.79 2601.01C1764.92 2600.63 1764.99 2600.24 1764.99 2599.83H1762.99ZM1677.73 2586.33C1701.51 2586.33 1723.02 2587.95 1738.56 2590.56C1746.34 2591.87 1752.57 2593.42 1756.84 2595.12C1758.98 2595.97 1760.57 2596.83 1761.6 2597.68C1762.65 2598.54 1762.99 2599.26 1762.99 2599.83H1764.99C1764.99 2598.4 1764.12 2597.16 1762.87 2596.14C1761.61 2595.1 1759.81 2594.14 1757.58 2593.26C1753.12 2591.48 1746.72 2589.91 1738.89 2588.59C1723.21 2585.95 1701.59 2584.33 1677.73 2584.33V2586.33ZM1592.48 2599.83C1592.48 2599.26 1592.82 2598.54 1593.87 2597.68C1594.9 2596.83 1596.49 2595.97 1598.63 2595.12C1602.9 2593.42 1609.13 2591.87 1616.91 2590.56C1632.45 2587.95 1653.95 2586.33 1677.73 2586.33V2584.33C1653.88 2584.33 1632.26 2585.95 1616.58 2588.59C1608.75 2589.91 1602.35 2591.48 1597.89 2593.26C1595.66 2594.14 1593.86 2595.1 1592.6 2596.14C1591.35 2597.16 1590.48 2598.4 1590.48 2599.83H1592.48ZM1592.57 2600.36C1592.51 2600.18 1592.48 2600 1592.48 2599.83H1590.48C1590.48 2600.24 1590.55 2600.63 1590.68 2601.01L1592.57 2600.36ZM1592.48 2602.02C1592.48 2601.63 1592.52 2601.26 1592.6 2600.91L1590.65 2600.47C1590.54 2600.97 1590.48 2601.48 1590.48 2602.02H1592.48ZM1592.48 2765.58V2602.02H1590.48V2765.58H1592.48ZM1597.48 2770.58C1594.72 2770.58 1592.48 2768.34 1592.48 2765.58H1590.48C1590.48 2769.44 1593.61 2772.58 1597.48 2772.58V2770.58ZM1642.62 2770.58H1597.48V2772.58H1642.62V2770.58ZM1709.03 2770.58H1642.62V2772.58H1709.03V2770.58ZM1757.99 2770.58H1709.03V2772.58H1757.99V2770.58ZM1762.99 2765.58C1762.99 2768.34 1760.75 2770.58 1757.99 2770.58V2772.58C1761.85 2772.58 1764.99 2769.44 1764.99 2765.58H1762.99ZM1762.99 2602.02V2765.58H1764.99V2602.02H1762.99ZM1762.87 2600.91C1762.95 2601.26 1762.99 2601.63 1762.99 2602.02H1764.99C1764.99 2601.48 1764.93 2600.97 1764.82 2600.47L1762.87 2600.91ZM1757.99 2597.02C1760.37 2597.02 1762.36 2598.68 1762.87 2600.91L1764.82 2600.47C1764.11 2597.35 1761.32 2595.02 1757.99 2595.02V2597.02ZM1597.48 2597.02H1757.99V2595.02H1597.48V2597.02ZM1592.6 2600.91C1593.11 2598.68 1595.1 2597.02 1597.48 2597.02V2595.02C1594.15 2595.02 1591.36 2597.35 1590.65 2600.47L1592.6 2600.91ZM1677.73 2613.33C1654.81 2613.33 1633.99 2611.83 1618.6 2609.38C1610.9 2608.15 1604.59 2606.7 1600.07 2605.09C1597.8 2604.28 1596.02 2603.46 1594.75 2602.62C1593.45 2601.77 1592.79 2601 1592.57 2600.36L1590.68 2601.01C1591.12 2602.28 1592.21 2603.36 1593.65 2604.3C1595.11 2605.25 1597.06 2606.14 1599.4 2606.97C1604.09 2608.64 1610.53 2610.12 1618.29 2611.35C1633.81 2613.82 1654.73 2615.33 1677.73 2615.33V2613.33ZM1762.9 2600.36C1762.67 2601 1762.02 2601.77 1760.72 2602.62C1759.45 2603.46 1757.66 2604.28 1755.4 2605.09C1750.87 2606.7 1744.57 2608.15 1736.87 2609.38C1721.48 2611.83 1700.66 2613.33 1677.73 2613.33V2615.33C1700.74 2615.33 1721.66 2613.82 1737.18 2611.35C1744.94 2610.12 1751.38 2608.64 1756.07 2606.97C1758.41 2606.14 1760.36 2605.25 1761.82 2604.3C1763.25 2603.36 1764.35 2602.28 1764.79 2601.01L1762.9 2600.36Z" fill="#030D2F" fill-opacity="0.24" mask="url(#path-21-inside-1_0_1)"/>
</g>
<g filter="url(#filter19_di_0_1)">
<path d="M1763 2767.33C1763 2775.06 1724.72 2781.33 1677.5 2781.33C1630.28 2781.33 1592 2775.06 1592 2767.33C1592 2759.6 1630.28 2753.33 1677.5 2753.33C1724.72 2753.33 1763 2759.6 1763 2767.33Z" fill="#1C3692"/>
</g>
<g filter="url(#filter20_d_0_1)">
<ellipse cx="1677.5" cy="2600.33" rx="86.5" ry="15" fill="#D3CFCF"/>
</g>
<g filter="url(#filter21_i_0_1)">
<ellipse cx="1678.5" cy="2606.83" rx="73.5" ry="8.5" fill="#2D1A04"/>
</g>
<g filter="url(#filter22_d_0_1)">
<mask id="path-26-inside-2_0_1" fill="white">
<rect x="1378" y="1492" width="877" height="585" rx="10"/>
</mask>
<rect x="1378" y="1492" width="877" height="585" rx="10" fill="#1B1A1A"/>
<rect x="1378" y="1492" width="877" height="585" rx="10" stroke="#535353" stroke-width="30" mask="url(#path-26-inside-2_0_1)"/>
</g>
<defs>
<filter id="filter0_i_0_1" x="3" y="2975" width="5521" height="140.8" filterUnits="userSpaceOnUse" color-interpolation-filters="sRGB">
<feFlood flood-opacity="0" result="BackgroundImageFix"/>
<feBlend mode="normal" in="SourceGraphic" in2="BackgroundImageFix" result="shape"/>
<feColorMatrix in="SourceAlpha" type="matrix" values="0 0 0 0 0 0 0 0 0 0 0 0 0 0 0 0 0 0 127 0" result="hardAlpha"/>
<feOffset dx="3" dy="11"/>
<feGaussianBlur stdDeviation="4.9"/>
<feComposite in2="hardAlpha" operator="arithmetic" k2="-1" k3="1"/>
<feColorMatrix type="matrix" values="0 0 0 0 0.427451 0 0 0 0 0.27451 0 0 0 0 0.145098 0 0 0 0.2 0"/>
<feBlend mode="normal" in2="shape" result="effect1_innerShadow_0_1"/>
</filter>
<filter id="filter1_i_0_1" x="3" y="2789" width="5518" height="192" filterUnits="userSpaceOnUse" color-interpolation-filters="sRGB">
<feFlood flood-opacity="0" result="BackgroundImageFix"/>
<feBlend mode="normal" in="SourceGraphic" in2="BackgroundImageFix" result="shape"/>
<feColorMatrix in="SourceAlpha" type="matrix" values="0 0 0 0 0 0 0 0 0 0 0 0 0 0 0 0 0 0 127 0" result="hardAlpha"/>
<feOffset dy="6"/>
<feGaussianBlur stdDeviation="6"/>
<feComposite in2="hardAlpha" operator="arithmetic" k2="-1" k3="1"/>
<feColorMatrix type="matrix" values="0 0 0 0 0.345833 0 0 0 0 0.2194 0 0 0 0 0.115278 0 0 0 0.33 0"/>
<feBlend mode="normal" in2="shape" result="effect1_innerShadow_0_1"/>
</filter>
<filter id="filter2_i_0_1" x="3" y="2479" width="5518" height="66" filterUnits="userSpaceOnUse" color-interpolation-filters="sRGB">
<feFlood flood-opacity="0" result="BackgroundImageFix"/>
<feBlend mode="normal" in="SourceGraphic" in2="BackgroundImageFix" result="shape"/>
<feColorMatrix in="SourceAlpha" type="matrix" values="0 0 0 0 0 0 0 0 0 0 0 0 0 0 0 0 0 0 127 0" result="hardAlpha"/>
<feOffset dy="4"/>
<feGaussianBlur stdDeviation="2"/>
<feComposite in2="hardAlpha" operator="arithmetic" k2="-1" k3="1"/>
<feColorMatrix type="matrix" values="0 0 0 0 0.556863 0 0 0 0 0.356863 0 0 0 0 0.192157 0 0 0 0.35 0"/>
<feBlend mode="normal" in2="shape" result="effect1_innerShadow_0_1"/>
</filter>
<filter id="filter3_i_0_1" x="3" y="2417" width="5518" height="66" filterUnits="userSpaceOnUse" color-interpolation-filters="sRGB">
<feFlood flood-opacity="0" result="BackgroundImageFix"/>
<feBlend mode="normal" in="SourceGraphic" in2="BackgroundImageFix" result="shape"/>
<feColorMatrix in="SourceAlpha" type="matrix" values="0 0 0 0 0 0 0 0 0 0 0 0 0 0 0 0 0 0 127 0" result="hardAlpha"/>
<feOffset dy="4"/>
<feGaussianBlur stdDeviation="2"/>
<feComposite in2="hardAlpha" operator="arithmetic" k2="-1" k3="1"/>
<feColorMatrix type="matrix" values="0 0 0 0 0.556863 0 0 0 0 0.356863 0 0 0 0 0.192157 0 0 0 0.44 0"/>
<feBlend mode="normal" in2="shape" result="effect1_innerShadow_0_1"/>
</filter>
<filter id="filter4_i_0_1" x="3" y="2376" width="5518" height="45" filterUnits="userSpaceOnUse" color-interpolation-filters="sRGB">
<feFlood flood-opacity="0" result="BackgroundImageFix"/>
<feBlend mode="normal" in="SourceGraphic" in2="BackgroundImageFix" result="shape"/>
<feColorMatrix in="SourceAlpha" type="matrix" values="0 0 0 0 0 0 0 0 0 0 0 0 0 0 0 0 0 0 127 0" result="hardAlpha"/>
<feOffset dy="4"/>
<feGaussianBlur stdDeviation="2"/>
<feComposite in2="hardAlpha" operator="arithmetic" k2="-1" k3="1"/>
<feColorMatrix type="matrix" values="0 0 0 0 0.556863 0 0 0 0 0.356863 0 0 0 0 0.192157 0 0 0 0.2 0"/>
<feBlend mode="normal" in2="shape" result="effect1_innerShadow_0_1"/>
</filter>
<filter id="filter5_i_0_1" x="3" y="2345" width="5518" height="35" filterUnits="userSpaceOnUse" color-interpolation-filters="sRGB">
<feFlood flood-opacity="0" result="BackgroundImageFix"/>
<feBlend mode="normal" in="SourceGraphic" in2="BackgroundImageFix" result="shape"/>
<feColorMatrix in="SourceAlpha" type="matrix" values="0 0 0 0 0 0 0 0 0 0 0 0 0 0 0 0 0 0 127 0" result="hardAlpha"/>
<feOffset dy="4"/>
<feGaussianBlur stdDeviation="2"/>
<feComposite in2="hardAlpha" operator="arithmetic" k2="-1" k3="1"/>
<feColorMatrix type="matrix" values="0 0 0 0 0.556863 0 0 0 0 0.356863 0 0 0 0 0.192157 0 0 0 0.2 0"/>
<feBlend mode="normal" in2="shape" result="effect1_innerShadow_0_1"/>
</filter>
<filter id="filter6_i_0_1" x="3" y="3106" width="5518" height="184" filterUnits="userSpaceOnUse" color-interpolation-filters="sRGB">
<feFlood flood-opacity="0" result="BackgroundImageFix"/>
<feBlend mode="normal" in="SourceGraphic" in2="BackgroundImageFix" result="shape"/>
<feColorMatrix in="SourceAlpha" type="matrix" values="0 0 0 0 0 0 0 0 0 0 0 0 0 0 0 0 0 0 127 0" result="hardAlpha"/>
<feOffset dy="47"/>
<feGaussianBlur stdDeviation="25.5"/>
<feComposite in2="hardAlpha" operator="arithmetic" k2="-1" k3="1"/>
<feColorMatrix type="matrix" values="0 0 0 0 0 0 0 0 0 0 0 0 0 0 0 0 0 0 0.25 0"/>
<feBlend mode="normal" in2="shape" result="effect1_innerShadow_0_1"/>
</filter>
<filter id="filter7_i_0_1" x="3" y="2653" width="2295" height="140" filterUnits="userSpaceOnUse" color-interpolation-filters="sRGB">
<feFlood flood-opacity="0" result="BackgroundImageFix"/>
<feBlend mode="normal" in="SourceGraphic" in2="BackgroundImageFix" result="shape"/>
<feColorMatrix in="SourceAlpha" type="matrix" values="0 0 0 0 0 0 0 0 0 0 0 0 0 0 0 0 0 0 127 0" result="hardAlpha"/>
<feOffset dy="4"/>
<feGaussianBlur stdDeviation="2"/>
<feComposite in2="hardAlpha" operator="arithmetic" k2="-1" k3="1"/>
<feColorMatrix type="matrix" values="0 0 0 0 0.733333 0 0 0 0 0.490196 0 0 0 0 0.266667 0 0 0 1 0"/>
<feBlend mode="normal" in2="shape" result="effect1_innerShadow_0_1"/>
</filter>
<filter id="filter8_i_0_1" x="4745" y="2376.33" width="670" height="45" filterUnits="userSpaceOnUse" color-interpolation-filters="sRGB">
<feFlood flood-opacity="0" result="BackgroundImageFix"/>
<feBlend mode="normal" in="SourceGraphic" in2="BackgroundImageFix" result="shape"/>
<feColorMatrix in="SourceAlpha" type="matrix" values="0 0 0 0 0 0 0 0 0 0 0 0 0 0 0 0 0 0 127 0" result="hardAlpha"/>
<feOffset dx="3" dy="4"/>
<feGaussianBlur stdDeviation="3.4"/>
<feComposite in2="hardAlpha" operator="arithmetic" k2="-1" k3="1"/>
<feColorMatrix type="matrix" values="0 0 0 0 0.6 0 0 0 0 0.38248 0 0 0 0 0.1825 0 0 0 0.3 0"/>
<feBlend mode="normal" in2="shape" result="effect1_innerShadow_0_1"/>
</filter>
<filter id="filter9_i_0_1" x="3765" y="2541" width="1756" height="116" filterUnits="userSpaceOnUse" color-interpolation-filters="sRGB">
<feFlood flood-opacity="0" result="BackgroundImageFix"/>
<feBlend mode="normal" in="SourceGraphic" in2="BackgroundImageFix" result="shape"/>
<feColorMatrix in="SourceAlpha" type="matrix" values="0 0 0 0 0 0 0 0 0 0 0 0 0 0 0 0 0 0 127 0" result="hardAlpha"/>
<feOffset dy="4"/>
<feGaussianBlur stdDeviation="2"/>
<feComposite in2="hardAlpha" operator="arithmetic" k2="-1" k3="1"/>
<feColorMatrix type="matrix" values="0 0 0 0 0.556863 0 0 0 0 0.356863 0 0 0 0 0.192157 0 0 0 0.47 0"/>
<feBlend mode="normal" in2="shape" result="effect1_innerShadow_0_1"/>
</filter>
<filter id="filter10_i_0_1" x="3149" y="2653" width="2373" height="140" filterUnits="userSpaceOnUse" color-interpolation-filters="sRGB">
<feFlood flood-opacity="0" result="BackgroundImageFix"/>
<feBlend mode="normal" in="SourceGraphic" in2="BackgroundImageFix" result="shape"/>
<feColorMatrix in="SourceAlpha" type="matrix" values="0 0 0 0 0 0 0 0 0 0 0 0 0 0 0 0 0 0 127 0" result="hardAlpha"/>
<feOffset dy="4"/>
<feGaussianBlur stdDeviation="2.5"/>
<feComposite in2="hardAlpha" operator="arithmetic" k2="-1" k3="1"/>
<feColorMatrix type="matrix" values="0 0 0 0 0.75 0 0 0 0 0.576131 0 0 0 0 0.353125 0 0 0 1 0"/>
<feBlend mode="normal" in2="shape" result="effect1_innerShadow_0_1"/>
</filter>
<filter id="filter11_d_0_1" x="1" y="2482" width="1273" height="70" filterUnits="userSpaceOnUse" color-interpolation-filters="sRGB">
<feFlood flood-opacity="0" result="BackgroundImageFix"/>
<feColorMatrix in="SourceAlpha" type="matrix" values="0 0 0 0 0 0 0 0 0 0 0 0 0 0 0 0 0 0 127 0" result="hardAlpha"/>
<feOffset dx="2" dy="4"/>
<feGaussianBlur stdDeviation="2"/>
<feComposite in2="hardAlpha" operator="out"/>
<feColorMatrix type="matrix" values="0 0 0 0 0.607843 0 0 0 0 0.403922 0 0 0 0 0.219608 0 0 0 0.7 0"/>
<feBlend mode="normal" in2="BackgroundImageFix" result="effect1_dropShadow_0_1"/>
<feBlend mode="normal" in="SourceGraphic" in2="effect1_dropShadow_0_1" result="shape"/>
</filter>
<filter id="filter12_i_0_1" x="1" y="2541" width="3828" height="117" filterUnits="userSpaceOnUse" color-interpolation-filters="sRGB">
<feFlood flood-opacity="0" result="BackgroundImageFix"/>
<feBlend mode="normal" in="SourceGraphic" in2="BackgroundImageFix" result="shape"/>
<feColorMatrix in="SourceAlpha" type="matrix" values="0 0 0 0 0 0 0 0 0 0 0 0 0 0 0 0 0 0 127 0" result="hardAlpha"/>
<feOffset dx="-2" dy="5"/>
<feGaussianBlur stdDeviation="4.8"/>
<feComposite in2="hardAlpha" operator="arithmetic" k2="-1" k3="1"/>
<feColorMatrix type="matrix" values="0 0 0 0 0.556863 0 0 0 0 0.356863 0 0 0 0 0.192157 0 0 0 0.38 0"/>
<feBlend mode="normal" in2="shape" result="effect1_innerShadow_0_1"/>
</filter>
<filter id="filter13_df_0_1" x="1991.75" y="2357.33" width="1564.19" height="595.1" filterUnits="userSpaceOnUse" color-interpolation-filters="sRGB">
<feFlood flood-opacity="0" result="BackgroundImageFix"/>
<feColorMatrix in="SourceAlpha" type="matrix" values="0 0 0 0 0 0 0 0 0 0 0 0 0 0 0 0 0 0 127 0" result="hardAlpha"/>
<feOffset dx="4" dy="7"/>
<feGaussianBlur stdDeviation="4.05"/>
<feComposite in2="hardAlpha" operator="out"/>
<feColorMatrix type="matrix" values="0 0 0 0 0 0 0 0 0 0 0 0 0 0 0 0 0 0 0.25 0"/>
<feBlend mode="normal" in2="BackgroundImageFix" result="effect1_dropShadow_0_1"/>
<feBlend mode="normal" in="SourceGraphic" in2="effect1_dropShadow_0_1" result="shape"/>
<feGaussianBlur stdDeviation="1" result="effect2_foregroundBlur_0_1"/>
</filter>
<filter id="filter14_i_0_1" x="3" y="3243" width="5518" height="1828" filterUnits="userSpaceOnUse" color-interpolation-filters="sRGB">
<feFlood flood-opacity="0" result="BackgroundImageFix"/>
<feBlend mode="normal" in="SourceGraphic" in2="BackgroundImageFix" result="shape"/>
<feColorMatrix in="SourceAlpha" type="matrix" values="0 0 0 0 0 0 0 0 0 0 0 0 0 0 0 0 0 0 127 0" result="hardAlpha"/>
<feOffset dy="35"/>
<feGaussianBlur stdDeviation="14"/>
<feComposite in2="hardAlpha" operator="arithmetic" k2="-1" k3="1"/>
<feColorMatrix type="matrix" values="0 0 0 0 0 0 0 0 0 0 0 0 0 0 0 0 0 0 0.25 0"/>
<feBlend mode="normal" in2="shape" result="effect1_innerShadow_0_1"/>
</filter>
<filter id="filter15_d_0_1" x="1503.4" y="2750.73" width="176.2" height="62.2" filterUnits="userSpaceOnUse" color-interpolation-filters="sRGB">
<feFlood flood-opacity="0" result="BackgroundImageFix"/>
<feColorMatrix in="SourceAlpha" type="matrix" values="0 0 0 0 0 0 0 0 0 0 0 0 0 0 0 0 0 0 127 0" result="hardAlpha"/>
<feOffset dx="2"/>
<feGaussianBlur stdDeviation="3.3"/>
<feComposite in2="hardAlpha" operator="out"/>
<feColorMatrix type="matrix" values="0 0 0 0 0.427451 0 0 0 0 0.27451 0 0 0 0 0.145098 0 0 0 0.35 0"/>
<feBlend mode="normal" in2="BackgroundImageFix" result="effect1_dropShadow_0_1"/>
<feBlend mode="normal" in="SourceGraphic" in2="effect1_dropShadow_0_1" result="shape"/>
</filter>
<filter id="filter16_d_0_1" x="1687.4" y="2708.73" width="165.2" height="55.2" filterUnits="userSpaceOnUse" color-interpolation-filters="sRGB">
<feFlood flood-opacity="0" result="BackgroundImageFix"/>
<feColorMatrix in="SourceAlpha" type="matrix" values="0 0 0 0 0 0 0 0 0 0 0 0 0 0 0 0 0 0 127 0" result="hardAlpha"/>
<feOffset dx="2"/>
<feGaussianBlur stdDeviation="3.3"/>
<feComposite in2="hardAlpha" operator="out"/>
<feColorMatrix type="matrix" values="0 0 0 0 0.427451 0 0 0 0 0.27451 0 0 0 0 0.145098 0 0 0 0.35 0"/>
<feBlend mode="normal" in2="BackgroundImageFix" result="effect1_dropShadow_0_1"/>
<feBlend mode="normal" in="SourceGraphic" in2="effect1_dropShadow_0_1" result="shape"/>
</filter>
<filter id="filter17_i_0_1" x="1729.98" y="2642.65" width="87.0176" height="103.23" filterUnits="userSpaceOnUse" color-interpolation-filters="sRGB">
<feFlood flood-opacity="0" result="BackgroundImageFix"/>
<feBlend mode="normal" in="SourceGraphic" in2="BackgroundImageFix" result="shape"/>
<feColorMatrix in="SourceAlpha" type="matrix" values="0 0 0 0 0 0 0 0 0 0 0 0 0 0 0 0 0 0 127 0" result="hardAlpha"/>
<feOffset dy="4"/>
<feGaussianBlur stdDeviation="11.95"/>
<feComposite in2="hardAlpha" operator="arithmetic" k2="-1" k3="1"/>
<feColorMatrix type="matrix" values="0 0 0 0 0 0 0 0 0 0 0 0 0 0 0 0 0 0 0.25 0"/>
<feBlend mode="normal" in2="shape" result="effect1_innerShadow_0_1"/>
</filter>
<filter id="filter18_if_0_1" x="1587.48" y="2584.23" width="177.608" height="189.348" filterUnits="userSpaceOnUse" color-interpolation-filters="sRGB">
<feFlood flood-opacity="0" result="BackgroundImageFix"/>
<feBlend mode="normal" in="SourceGraphic" in2="BackgroundImageFix" result="shape"/>
<feColorMatrix in="SourceAlpha" type="matrix" values="0 0 0 0 0 0 0 0 0 0 0 0 0 0 0 0 0 0 127 0" result="hardAlpha"/>
<feOffset dx="-4" dy="2"/>
<feGaussianBlur stdDeviation="5.5"/>
<feComposite in2="hardAlpha" operator="arithmetic" k2="-1" k3="1"/>
<feColorMatrix type="matrix" values="0 0 0 0 0 0 0 0 0 0 0 0 0 0 0 0 0 0 0.25 0"/>
<feBlend mode="normal" in2="shape" result="effect1_innerShadow_0_1"/>
<feGaussianBlur stdDeviation="0.55" result="effect2_foregroundBlur_0_1"/>
</filter>
<filter id="filter19_di_0_1" x="1588" y="2748.33" width="179" height="41" filterUnits="userSpaceOnUse" color-interpolation-filters="sRGB">
<feFlood flood-opacity="0" result="BackgroundImageFix"/>
<feColorMatrix in="SourceAlpha" type="matrix" values="0 0 0 0 0 0 0 0 0 0 0 0 0 0 0 0 0 0 127 0" result="hardAlpha"/>
<feOffset dy="4"/>
<feGaussianBlur stdDeviation="2"/>
<feComposite in2="hardAlpha" operator="out"/>
<feColorMatrix type="matrix" values="0 0 0 0 0 0 0 0 0 0 0 0 0 0 0 0 0 0 0.25 0"/>
<feBlend mode="normal" in2="BackgroundImageFix" result="effect1_dropShadow_0_1"/>
<feBlend mode="normal" in="SourceGraphic" in2="effect1_dropShadow_0_1" result="shape"/>
<feColorMatrix in="SourceAlpha" type="matrix" values="0 0 0 0 0 0 0 0 0 0 0 0 0 0 0 0 0 0 127 0" result="hardAlpha"/>
<feOffset dx="-3" dy="-5"/>
<feGaussianBlur stdDeviation="2.65"/>
<feComposite in2="hardAlpha" operator="arithmetic" k2="-1" k3="1"/>
<feColorMatrix type="matrix" values="0 0 0 0 0 0 0 0 0 0 0 0 0 0 0 0 0 0 0.25 0"/>
<feBlend mode="normal" in2="shape" result="effect2_innerShadow_0_1"/>
</filter>
<filter id="filter20_d_0_1" x="1587" y="2585.33" width="181" height="38" filterUnits="userSpaceOnUse" color-interpolation-filters="sRGB">
<feFlood flood-opacity="0" result="BackgroundImageFix"/>
<feColorMatrix in="SourceAlpha" type="matrix" values="0 0 0 0 0 0 0 0 0 0 0 0 0 0 0 0 0 0 127 0" result="hardAlpha"/>
<feOffset dy="4"/>
<feGaussianBlur stdDeviation="2"/>
<feComposite in2="hardAlpha" operator="out"/>
<feColorMatrix type="matrix" values="0 0 0 0 0 0 0 0 0 0 0 0 0 0 0 0 0 0 0.25 0"/>
<feBlend mode="normal" in2="BackgroundImageFix" result="effect1_dropShadow_0_1"/>
<feBlend mode="normal" in="SourceGraphic" in2="effect1_dropShadow_0_1" result="shape"/>
</filter>
<filter id="filter21_i_0_1" x="1605" y="2598.33" width="147" height="26" filterUnits="userSpaceOnUse" color-interpolation-filters="sRGB">
<feFlood flood-opacity="0" result="BackgroundImageFix"/>
<feBlend mode="normal" in="SourceGraphic" in2="BackgroundImageFix" result="shape"/>
<feColorMatrix in="SourceAlpha" type="matrix" values="0 0 0 0 0 0 0 0 0 0 0 0 0 0 0 0 0 0 127 0" result="hardAlpha"/>
<feOffset dy="9"/>
<feGaussianBlur stdDeviation="6.15"/>
<feComposite in2="hardAlpha" operator="arithmetic" k2="-1" k3="1"/>
<feColorMatrix type="matrix" values="0 0 0 0 0.176471 0 0 0 0 0.101961 0 0 0 0 0.0156863 0 0 0 1 0"/>
<feBlend mode="normal" in2="shape" result="effect1_innerShadow_0_1"/>
</filter>
<filter id="filter22_d_0_1" x="1348" y="1475" width="949" height="657" filterUnits="userSpaceOnUse" color-interpolation-filters="sRGB">
<feFlood flood-opacity="0" result="BackgroundImageFix"/>
<feColorMatrix in="SourceAlpha" type="matrix" values="0 0 0 0 0 0 0 0 0 0 0 0 0 0 0 0 0 0 127 0" result="hardAlpha"/>
<feMorphology radius="13" operator="dilate" in="SourceAlpha" result="effect1_dropShadow_0_1"/>
<feOffset dx="6" dy="19"/>
<feGaussianBlur stdDeviation="11.5"/>
<feComposite in2="hardAlpha" operator="out"/>
<feColorMatrix type="matrix" values="0 0 0 0 0.545833 0 0 0 0 0.545833 0 0 0 0 0.545833 0 0 0 0.25 0"/>
<feBlend mode="normal" in2="BackgroundImageFix" result="effect1_dropShadow_0_1"/>
<feBlend mode="normal" in="SourceGraphic" in2="effect1_dropShadow_0_1" result="shape"/>
</filter>
</defs>
</svg>
