 <svg  version="1.0" xmlns="http://www.w3.org/2000/svg"  width="300.000000pt" height="399.000000pt" viewBox="0 0 300.000000 399.000000"  preserveAspectRatio="xMidYMid meet">  <g transform="translate(0.000000,399.000000) scale(0.100000,-0.100000)" fill="#ff0000" stroke="none"> <path d="M281 3796 c-53 -29 -50 67 -51 -1772 0 -1190 3 -1720 11 -1742 23 -65 -48 -62 1259 -62 1290 0 1232 -3 1259 56 8 18 11 479 11 1740 0 1876 4 1762 -56 1784 -16 6 -482 10 -1217 10 -970 -1 -1196 -3 -1216 -14z m121 -41 c-4 -23 -9 -25 -53 -25 l-49 0 0 -50 c0 -43 -3 -50 -20 -50 -17 0 -20 7 -20 50 0 70 29 100 98 100 47 0 49 -1 44 -25z m63 5 c7 -21 25 -28 25 -10 0 6 -4 10 -10 10 -5 0 -10 4 -10 9 0 4 20 8 45 8 25 0 45 -4 45 -9 0 -5 -4 -6 -10 -3 -5 3 -10 -3 -10 -15 0 -19 -5 -21 -38 -19 -21 2 -44 -1 -51 -6 -17 -10 -42 20 -34 41 8 21 41 17 48 -6z m149 4 c8 -21 -1 -34 -25 -34 -14 0 -19 7 -19 25 0 29 34 36 44 9z m74 -10 c3 -22 -18 -37 -34 -26 -5 4 -14 17 -21 29 -11 20 -10 21 20 20 24 -2 33 -7 35 -23z m152 0 c0 -31 -39 -34 -47 -4 -7 25 -23 26 -23 1 0 -21 -17 -31 -37 -23 -13 4 -18 34 -8 44 3 3 30 5 60 6 52 0 55 -1 55 -24z m93 19 c-7 -3 -13 -10 -13 -17 0 -18 -21 -35 -36 -29 -14 5 -19 35 -8 46 3 3 20 5 37 5 18 -1 26 -3 20 -5z m66 -20 c7 -16 9 -25 5 -21 -4 4 -13 3 -21 -4 -18 -15 -46 11 -37 35 10 26 39 20 53 -10z m91 15 c0 -5 -4 -6 -10 -3 -5 3 -10 -3 -10 -13 0 -30 -25 -33 -49 -6 -11 13 -21 26 -21 28 0 2 20 3 45 3 25 0 45 -4 45 -9z m128 -12 c5 -22 -13 -35 -38 -29 -12 3 -16 11 -13 24 3 10 1 19 -5 19 -5 0 -12 -9 -15 -20 -8 -30 -47 -27 -47 4 0 24 3 25 57 23 48 -2 58 -5 61 -21z m152 -2 c0 -31 -39 -34 -47 -4 -7 25 -23 26 -23 1 0 -21 -17 -31 -37 -23 -13 4 -18 34 -8 44 3 3 30 5 60 6 52 0 55 -1 55 -24z m100 20 c0 -14 -45 -51 -56 -47 -14 5 -19 35 -8 46 6 6 64 7 64 1z m54 -11 c4 -9 0 -23 -9 -32 -13 -14 -17 -14 -30 0 -19 19 -10 49 15 49 10 0 21 -8 24 -17z m74 -9 c5 -34 -25 -37 -48 -4 l-20 28 32 -1 c25 -2 34 -7 36 -23z m150 2 c4 -21 -14 -37 -35 -29 -7 3 -13 14 -13 24 0 25 -16 24 -23 -1 -8 -30 -47 -27 -47 4 0 24 3 25 57 23 48 -2 58 -5 61 -21z m95 17 c-7 -3 -13 -13 -13 -23 0 -20 -17 -30 -37 -22 -13 4 -18 34 -7 45 3 3 20 5 37 5 18 -1 26 -3 20 -5z m57 -5 c0 -9 3 -10 8 -2 9 14 92 15 92 1 0 -7 4 -7 12 1 7 7 17 12 24 12 20 0 26 -32 9 -49 -15 -15 -18 -14 -36 9 -18 23 -20 24 -30 8 -15 -27 -49 -23 -49 5 l-1 22 -18 -22 c-30 -35 -70 -27 -55 11 7 19 44 22 44 4z m225 -18 c0 -30 -23 -33 -39 -5 -6 11 -15 23 -20 27 -5 3 6 6 25 5 29 -2 34 -6 34 -27z m153 6 c2 -10 -2 -22 -9 -27 -15 -9 -39 7 -39 27 0 21 -17 17 -23 -6 -8 -30 -47 -27 -47 4 0 24 3 25 57 23 48 -2 58 -5 61 -21z m95 17 c-7 -3 -13 -13 -13 -23 0 -20 -17 -30 -37 -22 -13 4 -18 34 -7 45 3 3 20 5 37 5 18 -1 26 -3 20 -5z m57 -5 c0 -9 3 -10 8 -2 8 13 92 15 92 3 0 -5 -5 -9 -11 -9 -5 0 -7 -5 -4 -11 5 -6 13 -3 22 10 17 25 39 27 47 4 9 -22 -20 -51 -35 -36 -5 5 -28 8 -50 6 -35 -4 -39 -3 -39 19 l-1 23 -18 -22 c-21 -25 -47 -30 -54 -10 -7 20 4 37 24 37 10 0 19 -6 19 -12z m289 -14 c15 -19 21 -41 21 -75 0 -42 -3 -49 -20 -49 -17 0 -20 7 -20 50 l0 50 -49 0 c-44 0 -49 2 -53 25 -5 24 -3 25 48 25 45 0 56 -4 73 -26z m-2349 -63 c0 -23 -15 -35 -35 -27 -20 7 -7 46 16 46 12 0 19 -7 19 -19z m50 5 c0 -7 -7 -19 -15 -26 -13 -11 -15 -8 -15 14 0 16 5 26 15 26 8 0 15 -6 15 -14z m98 -11 c-13 -30 -24 -32 -38 -6 -15 28 -13 31 20 31 28 0 29 -1 18 -25z m110 3 c-21 -31 -33 -32 -46 -3 -11 24 -10 25 24 25 35 0 36 -1 22 -22z m112 14 c0 -5 -7 -17 -15 -28 -15 -19 -15 -19 -30 0 -22 29 -19 36 15 36 17 0 30 -4 30 -8z m100 -6 c0 -22 -26 -39 -37 -24 -25 33 -24 38 6 38 20 0 31 -5 31 -14z m110 6 c0 -5 -6 -17 -14 -28 -15 -19 -15 -19 -30 1 -22 29 -20 35 14 35 17 0 30 -4 30 -8z m100 -6 c0 -22 -24 -38 -38 -24 -20 20 -14 38 13 38 15 0 25 -6 25 -14z m110 6 c0 -5 -6 -17 -14 -28 -15 -19 -15 -19 -30 1 -22 29 -20 35 14 35 17 0 30 -4 30 -8z m98 -17 c-13 -30 -24 -32 -38 -6 -15 28 -13 31 20 31 28 0 29 -1 18 -25z m112 11 c0 -7 -7 -19 -15 -26 -13 -11 -18 -10 -30 6 -21 28 -18 34 15 34 19 0 30 -5 30 -14z m98 -11 c-13 -30 -24 -32 -38 -6 -15 28 -13 31 20 31 28 0 29 -1 18 -25z m112 19 c0 -12 -21 -44 -29 -44 -4 0 -13 11 -19 25 -11 24 -10 25 18 25 17 0 30 -3 30 -6z m110 -1 c0 -5 -8 -17 -16 -28 -15 -20 -15 -20 -30 -1 -21 29 -18 36 16 36 17 0 30 -3 30 -7z m100 1 c0 -12 -21 -44 -29 -44 -4 0 -13 11 -19 25 -11 24 -10 25 18 25 17 0 30 -3 30 -6z m110 -1 c0 -5 -8 -17 -16 -28 -15 -20 -15 -20 -30 -1 -21 29 -18 36 16 36 17 0 30 -3 30 -7z m100 -7 c0 -22 -24 -38 -38 -24 -20 20 -14 38 13 38 15 0 25 -6 25 -14z m110 6 c0 -5 -7 -17 -15 -28 -15 -19 -15 -19 -30 0 -22 29 -19 36 15 36 17 0 30 -4 30 -8z m104 -4 c-19 -33 -27 -38 -40 -27 -24 20 -16 39 17 39 21 0 28 -4 23 -12z m106 4 c0 -5 -6 -17 -14 -28 -15 -19 -15 -19 -30 1 -22 29 -20 35 14 35 17 0 30 -4 30 -8z m98 -17 c-13 -28 -19 -30 -36 -13 -21 21 -13 38 18 38 28 0 29 -1 18 -25z m112 19 c0 -12 -21 -44 -29 -44 -4 0 -13 11 -19 25 -11 24 -10 25 18 25 17 0 30 -3 30 -6z m80 -20 c0 -22 -2 -25 -15 -14 -8 7 -15 19 -15 26 0 8 7 14 15 14 10 0 15 -10 15 -26z m65 1 c0 -30 -39 -27 -43 3 -3 20 0 23 20 20 15 -2 23 -10 23 -23z m-2308 -52 c4 -12 -34 -29 -44 -19 -3 3 -3 12 1 21 7 18 37 17 43 -2z m1846 7 l397 0 0 -1625 0 -1625 -1110 0 -1110 0 0 1628 0 1627 712 -2 c392 -2 892 -3 1111 -3z m464 -6 c3 -8 1 -20 -4 -25 -12 -12 -48 14 -39 29 10 17 36 15 43 -4z m-2378 -23 c19 -12 6 -41 -18 -41 -23 0 -34 23 -18 39 13 13 18 13 36 2z m2438 -2 c16 -16 5 -39 -17 -39 -23 0 -34 16 -26 35 6 18 28 19 43 4z m-2367 -81 c0 -7 -33 -28 -44 -28 -8 0 -8 45 0 53 7 7 44 -14 44 -25z m2310 2 c0 -31 -6 -35 -34 -24 -21 8 -20 31 2 43 27 16 32 13 32 -19z m-2380 5 c15 -18 6 -45 -13 -45 -8 0 -20 7 -27 15 -10 12 -10 18 0 30 16 19 24 19 40 0z m2440 0 c10 -12 10 -18 0 -30 -16 -19 -39 -19 -46 0 -6 15 11 45 26 45 4 0 13 -7 20 -15z m-2433 -81 c3 -8 -2 -23 -11 -32 -14 -15 -18 -15 -31 -1 -9 9 -13 23 -9 32 8 21 43 22 51 1z m2436 4 c7 -21 -4 -38 -23 -38 -23 0 -34 16 -26 35 7 18 43 20 49 3z m-2373 -40 c0 -7 -33 -28 -44 -28 -8 0 -8 45 0 53 7 7 44 -14 44 -25z m2310 2 c0 -33 -19 -40 -40 -15 -10 12 -10 18 0 30 21 25 40 18 40 -15z m-2375 -70 c-4 -12 -12 -16 -25 -13 -30 8 -34 35 -9 56 23 18 23 18 31 -4 5 -12 6 -30 3 -39z m2435 35 c9 -11 10 -18 1 -28 -6 -8 -8 -16 -5 -19 3 -3 -3 -5 -13 -4 -24 1 -36 22 -28 46 8 24 28 26 45 5z m-2384 -60 c16 -13 17 -16 4 -25 -25 -17 -40 -11 -40 15 0 29 8 31 36 10z m2324 -15 c0 -33 -7 -37 -35 -16 -16 12 -17 16 -6 30 22 26 41 19 41 -14z m-2375 -15 c0 -21 -31 -33 -46 -18 -5 5 -7 17 -3 27 9 24 49 17 49 -9z m2438 13 c7 -21 -4 -38 -23 -38 -23 0 -34 16 -26 35 7 18 43 20 49 3z m-2445 -70 c7 -7 12 -17 12 -24 0 -19 -32 -26 -48 -10 -13 12 -13 18 -2 30 15 19 22 20 38 4z m2442 -4 c11 -12 11 -18 -2 -30 -16 -16 -48 -9 -48 10 0 13 20 36 31 36 4 0 12 -7 19 -16z m-2389 -15 c16 -8 18 -13 8 -25 -18 -22 -39 -17 -39 11 0 28 3 29 31 14z m2329 -19 c0 -33 -3 -35 -31 -20 -22 12 -25 36 -6 43 28 12 37 6 37 -23z m-2373 -46 c3 -8 -2 -23 -11 -32 -15 -15 -17 -15 -33 0 -13 14 -14 20 -3 32 16 20 39 20 47 0z m2437 -1 c10 -26 -23 -48 -42 -29 -8 8 -12 22 -9 30 8 21 43 20 51 -1z m-64 -51 c0 -37 -8 -44 -31 -29 -24 15 -24 26 -1 43 26 20 32 17 32 -14z m-2321 9 c12 -8 12 -12 2 -25 -20 -24 -41 -19 -41 9 0 26 14 31 39 16z m2391 -39 c0 -13 -23 -32 -37 -32 -19 0 -27 28 -13 45 9 11 17 12 31 4 10 -5 19 -13 19 -17z m-2445 -7 c0 -25 -40 -33 -49 -10 -9 24 2 37 27 33 14 -2 22 -10 22 -23z m2432 -57 c16 -13 5 -38 -17 -38 -24 0 -33 15 -25 40 6 19 14 19 42 -2z m-2432 -13 c0 -22 -31 -33 -48 -16 -7 7 -6 15 3 26 17 21 45 15 45 -10z m2375 -10 c0 -33 -1 -34 -25 -23 -29 13 -32 33 -7 47 27 16 32 13 32 -24z m-2320 15 c13 -9 12 -12 -4 -25 -28 -21 -36 -19 -36 10 0 26 15 32 40 15z m2390 -80 c0 -15 -28 -30 -44 -24 -18 7 -21 29 -6 39 6 4 7 11 4 17 -4 5 5 2 20 -7 14 -10 26 -21 26 -25z m-2443 4 c5 -14 -11 -34 -27 -34 -3 0 -11 4 -19 9 -19 12 -6 41 19 41 11 0 23 -7 27 -16z m2373 -44 c0 -33 -19 -40 -41 -14 -11 14 -10 18 6 30 28 21 35 17 35 -16z m-2320 10 c13 -9 12 -12 -4 -25 -28 -21 -36 -19 -36 10 0 26 15 32 40 15z m-53 -36 c3 -8 -2 -23 -11 -32 -15 -15 -17 -15 -33 0 -13 14 -14 20 -3 32 16 20 39 20 47 0z m2436 3 c6 -16 0 -26 -28 -47 -11 -8 -17 -10 -13 -6 4 5 3 15 -3 22 -6 8 -9 21 -5 29 7 19 42 20 49 2z m-2438 -79 c0 -26 -5 -34 -21 -36 -13 -2 -24 4 -28 13 -8 21 0 35 20 35 8 0 14 5 14 10 0 6 4 10 8 10 4 0 8 -15 7 -32z m51 8 c19 -15 19 -15 -1 -30 -29 -22 -35 -20 -35 14 0 34 7 37 36 16z m2324 -16 c0 -33 -19 -40 -40 -15 -10 12 -10 18 0 30 21 25 40 18 40 -15z m64 11 c10 -16 -5 -41 -24 -41 -23 0 -34 16 -26 35 6 16 42 20 50 6z m-9 -60 c-3 -2 0 -10 6 -17 6 -7 8 -18 4 -24 -8 -13 -42 -13 -50 0 -11 18 4 46 25 46 10 0 17 -2 15 -5z m-2430 -26 c0 -22 -31 -33 -48 -16 -7 7 -6 15 3 26 17 21 45 15 45 -10z m51 -20 c16 -13 17 -16 4 -25 -25 -17 -40 -11 -40 15 0 29 8 31 36 10z m2324 -15 c0 -33 -3 -35 -31 -20 -22 12 -25 36 -6 43 28 12 37 6 37 -23z m-2370 -47 c0 -22 -30 -27 -48 -9 -16 16 -16 18 2 31 21 16 46 4 46 -22z m2440 9 c0 -13 -23 -32 -37 -32 -19 0 -27 28 -13 45 9 11 17 12 31 4 10 -5 19 -13 19 -17z m-70 -62 c0 -31 -6 -35 -34 -24 -21 8 -20 31 2 43 27 16 32 13 32 -19z m-2322 8 c8 -8 9 -15 1 -25 -18 -21 -39 -15 -39 12 0 27 18 33 38 13z m-64 -4 c20 -8 20 -28 0 -44 -22 -19 -53 12 -34 34 14 18 13 18 34 10z m2446 -9 c9 -11 10 -18 1 -28 -6 -8 -7 -17 -3 -22 4 -4 -3 -2 -16 4 -29 15 -39 40 -21 52 19 12 25 11 39 -6z m-2434 -78 c3 -8 0 -25 -5 -40 -7 -18 -7 -27 1 -29 8 -3 9 -11 3 -24 -4 -10 -7 -23 -6 -27 0 -4 -10 0 -24 9 -31 20 -31 29 -3 48 l21 15 -23 19 c-13 11 -20 24 -16 30 10 16 45 15 52 -1z m2440 2 c3 -6 -5 -22 -19 -35 l-25 -23 -6 25 c-4 14 -4 29 -1 34 8 14 42 13 51 -1z m-2376 -31 c0 -7 -33 -28 -44 -28 -8 0 -8 45 0 53 7 7 44 -14 44 -25z m2310 2 c0 -33 -19 -40 -41 -14 -11 14 -10 18 6 30 28 21 35 17 35 -16z m55 -29 c-3 -5 -1 -12 4 -16 17 -10 -1 -36 -23 -33 -29 4 -32 32 -4 46 29 14 30 14 23 3z m-2381 -66 c20 -15 20 -15 1 -29 -25 -18 -35 -12 -35 20 0 28 7 29 34 9z m2326 -15 c0 -33 -19 -40 -40 -15 -10 12 -10 18 0 30 21 25 40 18 40 -15z m-2372 -23 c2 -9 -4 -20 -13 -23 -20 -8 -50 19 -40 36 10 17 49 8 53 -13z m2437 4 c0 -8 -8 -19 -17 -25 -22 -13 -44 5 -34 29 7 20 51 16 51 -4z m-10 -50 c-3 -5 -1 -12 5 -16 16 -10 12 -22 -16 -40 -15 -9 -24 -12 -20 -7 3 6 2 13 -4 17 -18 11 -11 35 13 45 29 12 29 12 22 1z m-2429 -16 c4 -8 1 -22 -5 -29 -9 -11 -9 -15 1 -19 7 -3 9 -6 3 -6 -5 0 -21 8 -35 18 -20 16 -22 21 -11 35 17 20 40 21 47 1z m45 -6 c16 -8 18 -13 8 -25 -18 -22 -39 -17 -39 11 0 28 3 29 31 14z m2329 -19 c0 -33 -19 -40 -40 -15 -10 12 -10 18 0 30 21 25 40 18 40 -15z m-2374 -53 c2 -7 1 -24 -4 -38 -6 -15 -5 -30 2 -43 8 -14 8 -20 -2 -23 -6 -3 -9 -9 -6 -15 4 -5 -5 -2 -20 7 -31 21 -33 31 -6 47 23 15 26 28 6 28 -16 0 -25 19 -18 38 6 16 41 16 48 -1z m2437 1 c7 -21 -4 -38 -23 -38 -23 0 -34 16 -26 35 7 18 43 20 49 3z m-63 -59 c0 -32 -3 -34 -31 -19 -24 13 -24 29 -2 46 24 16 33 9 33 -27z m-2329 20 c16 -8 18 -13 8 -25 -18 -22 -39 -17 -39 11 0 28 3 29 31 14z m2383 -20 c-2 -4 0 -10 6 -14 16 -10 12 -22 -16 -40 -15 -9 -24 -12 -20 -7 3 6 1 12 -6 14 -7 3 -9 11 -3 24 4 10 8 21 7 24 0 3 8 6 18 6 10 0 17 -4 14 -7z m-54 -104 c0 -19 -3 -35 -7 -35 -14 1 -43 27 -43 38 0 11 27 31 43 32 4 0 7 -16 7 -35z m-2375 0 c0 -22 -31 -33 -47 -17 -17 17 -1 44 24 40 15 -2 23 -10 23 -23z m54 11 c10 -12 8 -17 -8 -25 -28 -15 -31 -14 -31 14 0 28 21 33 39 11z m2386 -5 c0 -8 -8 -19 -17 -25 -22 -13 -44 5 -34 29 7 20 51 16 51 -4z m0 -71 c4 -6 2 -17 -4 -24 -6 -7 -9 -15 -6 -17 2 -3 -4 -5 -15 -5 -10 0 -18 3 -18 6 1 3 -3 14 -7 24 -6 13 -4 21 3 24 7 2 9 8 6 14 -4 6 2 6 14 -1 12 -6 24 -16 27 -21z m-2446 11 c9 -6 11 -15 6 -27 -5 -11 -7 -23 -6 -27 2 -10 -36 10 -44 23 -7 11 11 40 24 40 3 0 12 -4 20 -9z m2381 -51 c0 -31 -6 -35 -34 -24 -21 8 -20 31 2 43 27 16 32 13 32 -19z m-2320 10 c13 -9 12 -12 -4 -25 -28 -21 -36 -19 -36 10 0 26 15 32 40 15z m-55 -67 c1 -18 -3 -33 -7 -33 -4 0 -8 5 -8 10 0 6 -6 10 -14 10 -16 0 -29 27 -20 41 3 6 16 9 27 7 17 -2 22 -10 22 -35z m2439 28 c9 -14 -4 -41 -20 -41 -8 0 -14 -5 -14 -11 0 -6 7 -8 17 -5 10 4 14 4 10 0 -4 -4 -2 -13 4 -21 8 -9 8 -17 0 -26 -6 -8 -7 -17 -3 -22 4 -4 -3 -3 -15 4 -29 15 -38 30 -25 43 7 7 7 19 1 36 -5 14 -8 31 -5 39 6 15 42 18 50 4z m-2374 -83 c0 -4 -9 -12 -20 -18 -16 -9 -22 -8 -26 5 -3 8 -4 22 0 30 5 13 9 13 26 3 11 -7 20 -16 20 -20z m2310 2 c0 -33 -19 -40 -40 -15 -10 12 -10 18 0 30 21 25 40 18 40 -15z m-2380 4 c11 -12 10 -18 -3 -32 -16 -15 -18 -15 -34 0 -13 14 -14 20 -3 32 7 9 16 16 20 16 4 0 13 -7 20 -16z m5 -89 c0 -25 -40 -33 -49 -10 -9 24 2 37 27 33 14 -2 22 -10 22 -23z m2438 13 c7 -21 -4 -38 -23 -38 -23 0 -34 16 -26 35 7 18 43 20 49 3z m-2373 -37 c0 -9 -24 -21 -41 -21 -10 0 -12 33 -3 43 8 8 44 -11 44 -22z m2310 -1 c0 -33 -3 -35 -31 -20 -22 12 -25 36 -6 43 28 12 37 6 37 -23z m-2380 -30 c12 -8 13 -13 3 -29 -10 -15 -10 -21 0 -24 7 -2 0 -4 -15 -3 -14 0 -24 3 -22 5 2 2 -1 10 -7 18 -9 10 -8 17 1 28 14 17 20 18 40 5z m2440 -5 c9 -11 10 -18 1 -28 -6 -8 -9 -16 -6 -18 2 -3 -4 -5 -15 -5 -10 0 -18 3 -18 6 1 3 -2 13 -7 24 -5 12 -3 21 6 27 19 12 25 11 39 -6z m-2380 -60 c15 -18 13 -20 -17 -29 -20 -6 -23 -4 -23 18 0 29 20 34 40 11z m2320 -8 c0 -32 -8 -38 -31 -24 -22 14 -25 33 -6 40 26 11 37 6 37 -16z m-2375 -22 c0 -25 -40 -33 -49 -10 -9 24 2 37 27 33 14 -2 22 -10 22 -23z m2438 13 c7 -21 -4 -38 -23 -38 -23 0 -34 16 -26 35 7 18 43 20 49 3z m-6 -55 c-4 -3 -2 -12 5 -20 15 -18 -11 -46 -35 -37 -24 9 -21 30 5 48 23 16 37 21 25 9z m-2439 -15 c7 -7 12 -17 12 -24 0 -19 -32 -26 -48 -10 -13 12 -13 18 -2 30 15 19 22 20 38 4z m2382 -32 c0 -30 -9 -37 -31 -25 -24 12 -24 35 -2 48 23 12 33 5 33 -23z m-2321 15 c12 -8 12 -12 2 -25 -20 -24 -41 -19 -41 9 0 26 14 31 39 16z m-54 -76 c0 -25 -40 -33 -49 -10 -9 24 2 37 27 33 14 -2 22 -10 22 -23z m2439 9 c8 -21 -1 -34 -24 -34 -22 0 -34 15 -26 35 7 20 42 19 50 -1z m-2374 -56 c0 -4 -9 -12 -20 -18 -16 -9 -22 -8 -26 5 -3 8 -4 22 0 30 5 13 9 13 26 3 11 -7 20 -16 20 -20z m2310 2 c0 -33 -19 -40 -41 -14 -11 14 -10 18 6 30 28 21 35 17 35 -16z m-2370 -35 c0 -21 -32 -27 -49 -10 -15 15 -14 18 3 30 21 16 46 4 46 -20z m2440 5 c0 -5 -5 -12 -10 -15 -6 -4 -8 -10 -5 -15 3 -4 -3 -7 -13 -6 -22 1 -36 35 -21 52 12 14 49 2 49 -16z m-2445 -87 c1 -18 -3 -33 -7 -33 -5 0 -3 -10 4 -21 11 -17 11 -23 0 -26 -6 -3 -9 -9 -6 -15 4 -6 -2 -6 -14 1 -33 18 -37 33 -14 52 25 20 28 29 8 29 -8 0 -16 6 -19 13 -7 22 5 38 27 35 16 -2 21 -10 21 -35z m49 22 c20 -15 20 -15 1 -29 -25 -18 -35 -12 -35 20 0 28 7 29 34 9z m2326 -15 c0 -33 -7 -37 -35 -16 -16 12 -17 16 -6 30 22 26 41 19 41 -14z m63 18 c7 -21 -4 -38 -23 -38 -23 0 -34 16 -26 35 7 18 43 20 49 3z m-8 -57 c-3 -2 0 -10 6 -18 8 -9 8 -17 0 -26 -6 -8 -7 -17 -3 -21 4 -4 -5 -2 -20 5 -28 12 -36 33 -18 44 6 4 8 10 6 14 -3 3 4 7 14 7 11 0 17 -2 15 -5z m-2379 -56 c16 -13 17 -16 4 -25 -25 -17 -40 -11 -40 15 0 29 8 31 36 10z m2324 -15 c0 -33 -3 -35 -31 -20 -22 12 -25 36 -6 43 28 12 37 6 37 -23z m-2375 -35 c0 -22 -31 -33 -47 -17 -17 17 -1 44 24 40 15 -2 23 -10 23 -23z m2439 9 c8 -21 -1 -34 -24 -34 -22 0 -34 15 -26 35 7 20 42 19 50 -1z m-2440 -95 c-3 -5 -15 -14 -27 -20 -12 -7 -19 -8 -15 -4 4 5 2 15 -4 23 -10 12 -8 18 12 34 24 19 24 19 32 -2 4 -12 6 -26 2 -31z m2376 16 c0 -38 -2 -40 -31 -25 -24 13 -24 29 -1 46 26 21 32 17 32 -21z m-2322 13 c8 -8 9 -15 1 -25 -18 -21 -39 -15 -39 12 0 27 18 33 38 13z m2382 -3 c9 -11 10 -18 1 -28 -6 -8 -9 -16 -6 -18 2 -3 -5 -5 -15 -5 -10 0 -17 2 -15 5 3 2 0 10 -6 18 -9 10 -8 17 1 28 7 8 16 15 20 15 4 0 13 -7 20 -15z m-2435 -90 c0 -23 -34 -33 -45 -14 -13 20 1 40 24 37 13 -2 21 -10 21 -23z m2438 13 c7 -21 -4 -38 -23 -38 -23 0 -34 16 -26 35 7 18 43 20 49 3z m-63 -38 c0 -31 -6 -35 -34 -24 -21 8 -20 31 2 43 27 16 32 13 32 -19z m-2320 10 c13 -9 12 -12 -4 -25 -28 -21 -36 -19 -36 10 0 26 15 32 40 15z m-56 -54 c8 -14 8 -20 -2 -23 -6 -3 -9 -9 -6 -15 4 -6 -2 -6 -14 1 -29 16 -36 30 -21 47 14 18 29 14 43 -10z m2436 9 c10 -12 10 -18 0 -30 -16 -19 -39 -19 -46 0 -6 15 11 45 26 45 4 0 13 -7 20 -15z m-60 -75 c0 -31 -6 -35 -34 -24 -19 7 -21 25 -4 42 21 21 38 13 38 -18z m-2321 11 c18 -11 5 -31 -20 -31 -12 0 -19 7 -19 20 0 21 16 26 39 11z m-52 -17 c3 -8 -2 -23 -11 -32 -16 -16 -18 -16 -31 1 -7 11 -11 25 -8 33 7 19 42 18 50 -2z m2433 0 c11 -12 10 -18 -3 -32 -16 -15 -18 -15 -33 0 -19 18 -12 48 9 48 8 0 20 -7 27 -16z m-2446 -60 c21 -8 21 -40 0 -48 -19 -7 -44 10 -44 29 0 8 6 16 13 18 6 3 13 6 14 6 1 1 8 -2 17 -5z m2450 -19 c6 -18 -20 -39 -39 -31 -18 7 -20 43 -2 49 17 6 34 -2 41 -18z m-2375 -22 c6 -4 -31 -32 -41 -33 -10 0 -11 44 -1 53 3 4 13 1 22 -5 9 -7 18 -14 20 -15z m2311 -3 c0 -33 -19 -40 -40 -15 -10 12 -10 18 0 30 21 25 40 18 40 -15z m-2379 -81 c-6 -18 -6 -30 1 -37 14 -14 3 -42 -15 -42 -8 0 -21 7 -28 16 -11 14 -10 19 9 34 25 21 28 30 8 30 -16 0 -25 19 -19 38 3 6 11 12 19 12 8 0 14 6 15 13 0 6 5 1 10 -12 6 -16 6 -35 0 -52z m2443 35 c8 -21 -1 -34 -24 -34 -22 0 -34 15 -26 35 7 20 42 19 50 -1z m-2388 -49 c16 -13 17 -16 4 -25 -25 -17 -40 -11 -40 15 0 29 8 31 36 10z m2324 -15 c0 -33 -7 -37 -35 -16 -16 12 -17 16 -6 30 22 26 41 19 41 -14z m57 13 c-4 -3 -2 -12 4 -20 13 -15 -4 -43 -28 -43 -25 0 -28 32 -4 52 22 17 42 26 28 11z m-2432 -93 c4 -6 3 -19 -1 -28 -12 -28 -13 -42 -3 -42 5 0 9 -9 9 -19 0 -26 -30 -35 -49 -15 -15 14 -14 17 7 32 l24 16 -22 16 c-14 10 -19 22 -14 33 7 19 39 23 49 7z m2375 -18 c0 -36 -8 -44 -31 -31 -24 12 -24 28 -1 45 26 20 32 17 32 -14z m60 12 c11 -12 10 -18 -3 -32 -16 -15 -18 -15 -33 0 -19 18 -12 48 9 48 8 0 20 -7 27 -16z m-2389 -5 c16 -8 18 -13 8 -25 -18 -22 -39 -17 -39 11 0 28 3 29 31 14z m2384 -65 c12 -12 13 -19 4 -30 -6 -8 -18 -14 -26 -14 -19 0 -28 27 -13 45 15 19 15 19 35 -1z m-2365 -56 c0 -5 -11 -8 -25 -8 -23 0 -34 18 -19 33 7 7 44 -14 44 -25z m2310 12 c0 -15 -7 -20 -25 -20 -29 0 -33 15 -7 29 25 15 32 13 32 -9z m-2327 -110 c48 0 52 -2 53 -25 2 -23 -1 -25 -48 -25 -68 0 -98 30 -98 99 0 39 4 50 18 53 14 3 17 -5 20 -49 l3 -53 52 0z m2387 50 c0 -71 -29 -100 -101 -100 -42 0 -50 3 -45 16 3 9 6 20 6 25 0 5 23 9 50 9 l50 0 0 50 c0 43 3 50 20 50 17 0 20 -7 20 -50z m-2372 -2 c-3 -26 -43 -33 -44 -8 -1 23 5 30 27 30 15 0 20 -6 17 -22z m52 3 c14 -27 13 -31 -10 -31 -15 0 -20 7 -20 25 0 30 15 33 30 6z m108 7 c21 -21 13 -38 -18 -38 -18 0 -30 5 -30 13 0 13 19 37 30 37 3 0 11 -5 18 -12z m110 0 c21 -21 13 -38 -18 -38 -18 0 -30 5 -30 13 0 13 19 37 30 37 3 0 11 -5 18 -12z m112 -7 c15 -28 13 -31 -20 -31 -16 0 -30 3 -30 6 0 12 21 44 30 44 5 0 14 -9 20 -19z m110 0 c15 -28 13 -31 -20 -31 -16 0 -30 3 -30 6 0 12 21 44 30 44 5 0 14 -9 20 -19z m108 7 c21 -21 13 -38 -18 -38 -33 0 -35 3 -20 31 12 22 21 24 38 7z m112 -7 c15 -28 13 -31 -20 -31 -31 0 -39 17 -18 38 17 17 26 15 38 -7z m110 0 c15 -28 13 -31 -20 -31 -16 0 -30 3 -30 6 0 12 21 44 30 44 5 0 14 -9 20 -19z m114 -6 l16 -25 -35 0 c-38 0 -40 2 -25 31 14 25 24 24 44 -6z m104 13 c21 -21 13 -38 -18 -38 -33 0 -35 3 -20 31 12 22 21 24 38 7z m112 -7 c15 -28 13 -31 -20 -31 -16 0 -30 3 -30 6 0 12 21 44 30 44 5 0 14 -9 20 -19z m108 7 c21 -21 13 -38 -18 -38 -18 0 -30 5 -30 13 0 13 19 37 30 37 3 0 11 -5 18 -12z m112 -7 c15 -28 13 -31 -20 -31 -16 0 -30 3 -30 6 0 12 21 44 30 44 5 0 14 -9 20 -19z m110 0 c15 -28 13 -31 -20 -31 -16 0 -30 3 -30 6 0 12 21 44 30 44 5 0 14 -9 20 -19z m108 7 c21 -21 13 -38 -18 -38 -33 0 -35 3 -20 31 12 22 21 24 38 7z m110 0 c21 -21 13 -38 -18 -38 -18 0 -30 5 -30 13 0 13 19 37 30 37 3 0 11 -5 18 -12z m112 -7 c15 -28 13 -31 -20 -31 -16 0 -30 3 -30 6 0 12 21 44 30 44 5 0 14 -9 20 -19z m110 0 c15 -28 13 -31 -20 -31 -16 0 -30 3 -30 6 0 12 21 44 30 44 5 0 14 -9 20 -19z m108 7 c21 -21 13 -38 -18 -38 -18 0 -30 5 -30 13 0 13 19 37 30 37 3 0 11 -5 18 -12z m110 0 c21 -21 13 -38 -18 -38 -33 0 -35 3 -20 31 12 22 21 24 38 7z m102 -13 c0 -18 -5 -25 -20 -25 -23 0 -24 4 -10 31 15 27 30 24 30 -6z m65 0 c0 -13 -8 -21 -22 -23 -19 -3 -23 1 -23 23 0 22 4 26 23 23 14 -2 22 -10 22 -23z m-2142 -45 c5 0 7 -10 5 -22 -2 -18 -10 -23 -35 -25 -18 -1 -33 3 -33 8 0 5 5 9 10 9 6 0 10 5 10 10 0 18 -18 11 -25 -10 -7 -23 -33 -27 -41 -5 -13 32 3 43 53 39 26 -2 52 -3 56 -4z m76 -4 c14 -17 4 -46 -15 -46 -18 0 -28 24 -20 45 7 19 20 19 35 1z m76 4 c4 -6 9 -8 13 -6 4 2 8 -7 9 -21 0 -16 -2 -21 -7 -13 -5 8 -10 9 -14 2 -3 -6 -19 -10 -35 -10 -27 1 -28 3 -18 22 19 34 40 45 52 26z m83 -18 c2 -12 8 -20 13 -17 5 4 9 2 9 -4 0 -5 -15 -9 -32 -8 -35 2 -52 32 -26 48 19 13 33 5 36 -19z m70 -5 c3 -21 -1 -27 -16 -27 -24 0 -36 28 -21 47 17 20 33 11 37 -20z m77 3 c0 -21 -5 -25 -32 -27 -18 -1 -33 3 -33 8 0 6 5 7 10 4 6 -3 10 2 10 13 0 24 10 34 30 30 9 -2 15 -14 15 -28z m74 16 c14 -16 4 -46 -15 -46 -20 0 -36 34 -22 48 15 15 23 15 37 -2z m81 -18 c0 -10 5 -16 10 -13 6 3 10 2 10 -3 0 -5 -13 -9 -30 -10 -21 0 -31 5 -36 20 -3 12 -1 24 7 28 18 12 39 1 39 -22z m66 24 c7 -4 14 -16 17 -27 5 -19 5 -19 12 2 13 41 61 38 53 -3 -3 -15 -13 -19 -56 -21 -55 -1 -71 10 -58 42 6 16 15 19 32 7z m164 -24 c0 -10 5 -16 10 -13 6 3 10 2 10 -4 0 -5 -15 -9 -32 -8 -35 2 -52 32 -27 47 18 12 39 0 39 -22z m65 2 c0 -28 -29 -40 -38 -15 -9 22 3 46 22 43 10 -2 16 -13 16 -28z m82 10 c3 -11 9 -20 14 -20 5 0 9 -4 9 -8 0 -5 -14 -9 -31 -10 -31 -1 -46 16 -35 43 8 22 37 18 43 -5z m73 4 c11 -12 10 -18 -3 -32 -16 -15 -18 -15 -34 0 -13 14 -14 20 -3 32 7 9 16 16 20 16 4 0 13 -7 20 -16z m75 -14 c0 -21 -5 -25 -32 -27 -18 -1 -33 3 -33 8 0 5 5 9 11 9 6 0 9 6 6 14 -6 16 9 26 33 23 9 -1 15 -13 15 -27z m80 20 c10 -16 -5 -50 -21 -50 -17 0 -28 24 -20 45 6 17 32 20 41 5z m73 -24 c-2 -16 -11 -21 -35 -23 -18 -1 -33 3 -33 8 0 5 5 9 10 9 6 0 10 6 10 14 0 8 6 16 13 19 22 7 38 -5 35 -27z m67 26 c6 -4 15 -16 22 -28 10 -19 9 -21 -18 -22 -31 -1 -46 17 -35 43 6 16 16 19 31 7z m80 -23 c0 -28 -29 -38 -39 -13 -7 19 11 47 28 41 6 -2 11 -14 11 -28z m82 11 c3 -11 9 -20 14 -20 5 0 9 -4 9 -9 0 -4 -20 -8 -45 -8 -25 0 -45 4 -45 9 0 5 5 6 10 3 6 -3 10 3 10 14 0 18 11 28 33 30 5 1 11 -8 14 -19z m79 -5 c9 -14 14 -28 10 -32 -3 -3 -6 -1 -6 7 0 10 -3 10 -16 0 -12 -11 -18 -10 -31 3 -13 13 -14 19 -3 31 17 22 27 20 46 -9z m69 -5 c0 -16 -6 -26 -18 -28 -19 -4 -32 20 -23 44 9 25 41 13 41 -16z m74 16 c14 -17 4 -46 -15 -46 -18 0 -28 24 -20 45 7 19 20 19 35 1z m69 5 c26 -16 9 -46 -26 -48 -17 -1 -32 3 -32 8 0 6 5 7 10 4 6 -3 10 2 10 13 0 30 14 39 38 23z m77 1 c6 -4 15 -16 22 -28 10 -19 9 -21 -18 -22 -31 -1 -46 17 -35 43 6 16 16 19 31 7z m80 -23 c0 -28 -29 -38 -39 -13 -7 19 11 47 28 41 6 -2 11 -14 11 -28z m123 23 c14 14 32 1 32 -22 0 -30 -21 -35 -42 -10 -10 12 -22 19 -26 15 -4 -4 -1 -10 6 -12 24 -9 11 -21 -20 -20 -23 2 -34 7 -36 21 -5 25 15 36 48 26 17 -5 32 -4 38 2z"/> <path d="M430 2015 l0 -1585 1070 0 1070 0 0 1585 0 1585 -1070 0 -1070 0 0 -1585z m240 1543 c0 -6 -9 -8 -19 -5 -12 3 -18 0 -15 -7 3 -7 -6 -22 -19 -34 l-23 -22 -23 24 c-20 21 -21 27 -10 39 16 17 109 21 109 5z m223 -6 c16 -17 15 -20 -8 -42 -24 -23 -25 -23 -45 -5 -23 21 -25 36 -8 53 17 17 42 15 61 -6z m127 -57 l-24 -26 -25 25 -25 25 24 26 24 26 25 -25 25 -25 -24 -26z m143 54 c8 -12 4 -22 -12 -38 l-23 -23 -24 23 c-23 21 -23 23 -7 41 19 22 51 20 66 -3z m260 3 c16 -17 15 -20 -8 -42 l-25 -24 -20 22 c-23 25 -25 33 -8 50 17 17 42 15 61 -6z m127 -57 l-24 -26 -25 25 -25 25 24 26 24 26 25 -25 25 -25 -24 -26z m144 53 c8 -14 6 -22 -11 -40 l-23 -22 -25 24 c-24 22 -24 24 -8 42 20 22 52 20 67 -4z m263 6 c15 -14 14 -18 -9 -41 l-26 -25 -21 21 c-24 24 -26 32 -9 49 17 17 46 15 65 -4z m267 -6 c8 -14 6 -22 -11 -40 l-23 -22 -25 24 c-24 22 -24 24 -8 42 20 22 52 20 67 -4z m270 0 c8 -13 5 -21 -14 -38 l-24 -21 -24 25 c-21 21 -23 26 -11 40 18 20 59 16 73 -6z m-1999 -8 c17 -19 17 -21 0 -40 -27 -29 -35 -25 -35 20 0 45 8 49 35 20z m260 0 c23 -26 14 -35 -33 -32 -31 2 -39 -1 -48 -22 -7 -14 -8 -30 -3 -38 7 -10 9 -9 9 5 0 17 22 47 34 47 3 0 7 -17 8 -37 l1 -38 4 38 c5 43 23 51 23 10 1 -28 1 -28 15 6 13 28 17 31 30 21 8 -7 15 -19 15 -27 0 -8 5 -11 10 -8 16 10 38 -18 38 -48 0 -17 -7 -29 -19 -32 -33 -11 -42 5 -18 31 12 13 19 24 15 24 -4 0 -16 -10 -26 -22 -13 -17 -15 -27 -8 -35 7 -9 7 -13 -1 -13 -17 0 -51 38 -52 58 0 12 -3 10 -10 -7 -11 -28 -18 -23 -30 21 -8 29 -8 28 -4 -12 4 -41 4 -43 -8 -22 -7 12 -16 20 -20 16 -4 -4 -13 8 -21 27 -14 33 -14 35 22 71 43 43 53 45 77 18z m530 0 c18 -20 18 -21 -3 -43 l-22 -21 -21 20 c-18 19 -19 24 -8 43 17 26 31 27 54 1z m532 4 c13 -13 14 -19 3 -40 -16 -29 -31 -30 -55 -4 -17 19 -17 21 0 40 22 24 32 25 52 4z m268 -4 c17 -19 17 -21 0 -40 -22 -25 -31 -25 -55 -2 -19 17 -19 19 -2 40 21 27 34 28 57 2z m267 3 c24 -21 23 -36 -2 -28 -10 3 -28 1 -39 -4 -28 -15 -38 5 -15 30 21 23 32 24 56 2z m-1394 -107 l-24 -27 -24 26 -23 25 23 25 24 26 24 -25 25 -24 -25 -26z m265 54 c21 -25 21 -29 0 -52 -9 -10 -13 -21 -10 -25 4 -3 15 3 25 15 l19 22 23 -25 24 -25 -22 -23 -22 -22 -51 52 -52 51 19 26 c23 31 25 31 47 6z m119 -52 l-22 -22 -24 23 -25 24 22 23 22 23 25 -24 24 -25 -22 -22z m148 -3 l-24 -26 -24 26 -24 26 23 25 23 25 25 -25 25 -25 -24 -26z m408 25 c0 -3 -25 -27 -54 -54 l-55 -50 -21 22 -22 22 24 25 24 25 23 -22 c26 -24 32 -14 7 13 -15 16 -14 20 2 42 l19 24 27 -21 c15 -11 27 -23 26 -26z m242 -25 l-24 -26 -24 26 -24 26 23 25 23 25 25 -25 25 -25 -24 -26z m257 63 c12 -20 13 -40 2 -62 -10 -21 -10 -21 5 -2 9 11 16 23 16 28 0 4 7 8 15 8 22 0 18 -11 -15 -47 -28 -31 -48 -44 -36 -24 9 14 -23 22 -44 11 -29 -15 -37 -12 -45 17 -5 21 -8 24 -16 12 -5 -7 -9 -11 -9 -7 0 3 -3 14 -7 24 -4 11 -3 15 4 11 6 -4 14 1 18 11 6 13 10 8 21 -23 l14 -40 -5 43 c-3 25 -1 42 5 42 5 0 11 -15 12 -32 l1 -33 4 33 c4 32 23 46 23 16 0 -9 5 -12 11 -8 9 5 10 -1 5 -20 -4 -18 -3 -25 4 -21 13 8 13 42 0 50 -5 3 -10 10 -10 16 0 13 17 11 27 -3z m143 -38 c0 -27 -3 -50 -7 -50 -4 0 -17 12 -28 26 l-21 27 20 23 c30 34 36 30 36 -26z m-1990 22 c20 -18 20 -19 -5 -42 l-25 -23 -25 23 -24 23 22 18 c28 23 33 23 57 1z m531 -1 l21 -19 -21 -21 c-26 -26 -33 -26 -56 -1 -17 19 -17 21 0 40 22 25 31 25 56 1z m534 -1 c17 -19 17 -21 0 -40 -23 -25 -36 -25 -58 1 -17 20 -18 22 -1 40 22 24 36 24 59 -1z m145 2 c20 -18 20 -19 -5 -42 l-25 -24 -22 22 c-21 21 -21 22 -3 42 22 25 30 25 55 2z m265 -2 c17 -19 17 -21 0 -40 -22 -24 -24 -24 -54 1 -23 19 -23 20 -6 39 23 25 37 25 60 0z m-1371 -47 c30 -44 24 -60 -8 -20 -12 15 -26 27 -30 27 -5 0 -3 -7 4 -15 7 -8 8 -15 2 -15 -5 0 -15 7 -22 15 -9 11 -9 17 2 29 19 22 25 20 52 -21z m1602 7 c13 -21 20 -26 26 -17 5 8 8 4 8 -10 0 -32 -15 -29 -40 8 -12 16 -25 28 -28 25 -2 -3 0 -12 6 -19 7 -8 9 -16 7 -19 -3 -3 6 -13 21 -23 32 -21 17 -36 -31 -29 -24 4 -26 3 -10 -5 16 -8 13 -10 -20 -10 -35 0 -38 1 -23 13 10 7 14 17 10 21 -7 8 28 3 63 -9 11 -4 4 2 -15 13 -31 17 -37 18 -52 4 -9 -8 -21 -12 -26 -9 -6 3 -8 -12 -5 -38 6 -53 -6 -63 -37 -30 l-24 24 49 50 c42 43 51 48 69 38 19 -10 20 -10 7 5 -11 14 -11 20 -1 32 18 22 27 19 46 -15z m-1237 -59 c-30 -25 -32 -25 -54 -1 -18 20 -18 21 5 45 l24 26 25 -25 25 -25 -25 -20z m536 -1 c-23 -25 -30 -25 -57 0 l-22 20 24 25 24 26 25 -25 c24 -25 24 -26 6 -46z m527 -2 l-22 -22 -25 24 -25 24 22 23 22 24 25 -26 25 -25 -22 -22z m367 39 c-24 -19 -24 -20 -1 -13 33 11 27 -2 -10 -19 -18 -8 -25 -13 -15 -10 10 3 27 5 38 5 11 0 19 7 19 17 0 13 7 10 30 -12 32 -31 40 -74 17 -94 -20 -16 -24 -7 -21 44 1 25 -1 45 -4 45 -4 0 -25 -7 -47 -15 l-40 -15 43 6 c28 4 42 2 42 -6 0 -7 -17 -10 -47 -8 -46 3 -48 4 -46 32 3 32 40 79 56 69 6 -4 0 -15 -14 -26z m-1956 5 c16 -17 15 -20 -3 -40 -12 -12 -23 -22 -25 -22 -3 0 -5 18 -5 40 0 44 8 49 33 22z m662 -12 c18 -20 18 -21 -5 -45 l-24 -25 -23 22 -23 22 22 23 c26 28 30 28 53 3z m263 -3 l22 -23 -23 -22 -23 -22 -24 25 c-23 24 -23 25 -5 45 23 25 27 25 53 -3z m267 3 c17 -19 17 -21 -1 -42 -10 -13 -20 -25 -21 -27 -2 -3 -14 6 -28 19 l-25 24 22 23 c26 28 30 28 53 3z m266 -1 l21 -21 -24 -24 -24 -25 -23 25 c-22 23 -22 25 -5 45 23 26 29 26 55 0z m-1008 -105 c-32 -32 -41 -24 -37 29 3 37 0 43 -16 44 -11 1 -20 -2 -20 -7 0 -5 -8 -11 -17 -13 -10 -2 -6 -3 10 -1 33 4 35 -9 5 -25 -13 -6 -15 -9 -6 -7 10 3 20 1 23 -4 4 -6 -4 -10 -17 -10 -20 -1 -19 -3 10 -15 34 -15 39 -24 20 -43 -19 -19 -31 -14 -26 12 4 20 1 24 -21 24 -20 0 -22 -2 -10 -12 21 -16 22 -63 3 -70 -18 -7 -44 10 -44 27 0 7 4 7 12 -1 7 -7 16 -12 22 -12 5 0 -5 12 -22 26 -18 15 -32 31 -32 37 0 5 6 4 14 -2 10 -9 15 -8 20 4 3 9 0 15 -9 15 -8 0 -15 4 -15 9 0 4 11 6 25 3 14 -2 25 -1 25 2 0 4 -11 11 -25 16 -35 13 -31 25 15 40 29 10 40 19 40 34 0 17 9 12 49 -28 l48 -48 -24 -24z m-309 97 c-2 -2 6 -11 17 -19 29 -20 7 -34 -46 -27 -31 3 -34 2 -15 -4 l25 -9 -27 -1 c-31 -1 -36 10 -13 29 12 10 21 10 42 1 14 -6 27 -10 30 -8 2 2 -10 10 -27 17 -23 9 -33 10 -44 1 -10 -8 -16 -9 -21 -1 -12 19 6 30 45 28 21 -2 36 -5 34 -7z m1744 -60 c5 -30 -15 -51 -49 -51 -52 0 -64 71 -16 90 28 10 61 -9 65 -39z m-1613 15 c13 -19 14 -29 6 -45 -25 -45 -91 -33 -91 17 0 54 56 72 85 28z m445 -51 l-24 -26 -24 24 -23 24 23 26 23 26 24 -24 25 -24 -24 -26z m530 0 l-23 -25 -24 24 -23 24 22 25 23 26 24 -24 25 -24 -24 -26z m-1193 25 c0 -51 -8 -56 -37 -25 -23 25 -23 25 -4 44 30 31 41 25 41 -19z m548 20 c17 -19 17 -21 0 -40 -22 -25 -31 -25 -56 -1 -20 19 -20 20 -2 39 23 26 36 27 58 2z m266 -1 l21 -21 -24 -24 -24 -25 -24 26 c-23 24 -23 25 -5 45 23 25 30 25 56 -1z m117 1 l22 -18 -48 -51 c-27 -28 -53 -51 -59 -51 -5 0 -18 9 -28 20 -18 20 -18 21 4 44 23 24 23 24 43 4 25 -25 37 -15 13 12 -17 19 -17 21 0 40 22 24 24 24 53 0z m147 0 c16 -18 16 -20 -2 -44 -20 -25 -28 -24 -52 7 -12 15 -11 20 4 37 22 25 28 25 50 0z m270 0 c18 -20 18 -21 -5 -45 l-24 -26 -25 26 -26 26 24 20 c29 24 34 24 56 -1z m116 -1 c20 -20 20 -22 3 -40 -22 -24 -36 -24 -59 1 -17 19 -17 21 0 40 23 25 30 25 56 -1z m253 -40 c-10 -16 10 -39 33 -39 20 0 24 -4 18 -17 -3 -10 -9 -30 -12 -45 -5 -25 -39 -67 -46 -57 -2 2 -16 21 -31 42 -16 20 -34 37 -42 37 -7 0 -18 10 -25 22 -10 18 -8 24 12 39 13 10 31 20 39 22 8 2 3 3 -12 1 -15 -2 -30 1 -33 6 -8 12 66 17 87 5 9 -5 15 -12 12 -16z m-1620 15 c9 -3 16 -10 16 -14 0 -10 -58 -25 -80 -21 -12 2 -12 0 -3 -10 9 -9 18 -10 36 -2 19 9 26 8 35 -6 6 -9 11 -11 11 -6 -3 23 2 26 16 11 18 -17 19 -27 4 -23 -6 1 -18 -9 -26 -23 l-15 -25 21 25 c14 17 21 20 21 10 0 -9 6 -5 16 10 14 24 14 24 9 -15 -4 -30 -3 -35 4 -20 8 17 10 14 10 -17 1 -21 -3 -38 -9 -38 -5 0 -10 7 -10 16 0 8 -4 12 -10 9 -6 -3 -10 4 -11 17 0 13 -3 17 -6 11 -5 -13 -63 -19 -63 -6 0 3 8 16 18 27 17 21 17 21 -4 4 -25 -22 -38 -23 -31 -3 4 8 2 17 -3 20 -6 4 -10 0 -10 -7 0 -8 -5 -7 -16 4 -19 18 -12 35 20 48 l21 9 -22 0 c-13 1 -23 6 -23 11 0 11 59 14 84 4z m1856 -3 c0 -5 -6 -11 -12 -14 -10 -3 -10 -8 1 -21 11 -13 11 -20 3 -28 -9 -9 -12 -7 -12 9 0 17 -8 23 -40 28 -22 4 -43 11 -46 17 -4 7 8 8 37 4 32 -5 40 -4 29 3 -12 9 -10 11 13 11 15 0 27 -4 27 -9z m-545 -71 c-23 -25 -37 -25 -60 0 -18 20 -18 21 5 45 l24 26 25 -25 c24 -25 24 -26 6 -46z m-938 -18 l-21 -22 -22 21 -23 21 21 28 20 28 23 -26 24 -27 -22 -23z m138 58 c17 -19 17 -21 0 -40 -23 -25 -37 -25 -60 0 -18 20 -18 21 1 40 25 24 37 25 59 0z m530 0 c17 -19 17 -21 0 -40 -21 -24 -32 -25 -51 -6 -19 19 -18 36 4 52 23 18 26 17 47 -6z m-1197 -13 l22 -23 -25 -24 -25 -23 0 46 c0 26 1 47 3 47 2 0 13 -10 25 -23z m795 3 c22 -26 21 -33 -3 -55 -19 -17 -21 -17 -40 0 -11 10 -20 22 -20 26 0 10 32 49 40 49 3 0 13 -9 23 -20z m265 -47 l-22 -23 -23 22 -23 22 22 23 22 23 23 -22 23 -22 -22 -23z m264 50 c23 -21 23 -36 -2 -58 -19 -17 -21 -17 -40 0 -24 22 -25 29 -3 55 21 24 22 24 45 3z m272 -9 c18 -25 18 -26 -4 -46 l-21 -20 -25 23 -24 23 22 23 c27 28 29 28 52 -3z m-1295 -24 c7 0 9 -5 6 -10 -4 -6 -1 -17 5 -25 10 -12 10 -15 -2 -15 -8 0 -22 16 -31 35 -20 42 -22 57 -3 33 7 -10 19 -18 25 -18z m1620 -16 c16 -2 41 -17 41 -25 0 -14 -28 -11 -34 4 -4 6 -5 3 -2 -9 2 -15 -11 -35 -44 -68 l-46 -46 -23 24 c-30 31 -20 46 25 39 27 -4 38 -1 49 13 17 23 19 50 4 60 -7 4 -9 0 -5 -13 6 -18 -18 -53 -28 -42 -8 10 -13 89 -5 89 5 0 9 -7 9 -16 0 -8 5 -12 10 -9 6 4 8 16 5 28 -6 21 -5 20 16 -3 12 -14 24 -25 28 -26z m40 17 c14 -11 20 -21 13 -25 -6 -3 -17 1 -26 10 -9 8 -20 13 -26 9 -6 -3 -7 1 -4 9 8 20 14 20 43 -3z m-1679 -53 c0 -11 5 -16 10 -13 6 4 18 4 27 1 12 -5 13 -9 3 -21 -19 -23 -35 -18 -47 13 -10 25 -11 25 -12 5 -2 -48 -21 -20 -21 30 l1 52 19 -24 c11 -13 20 -32 20 -43z m-222 19 l22 -23 -25 -24 -25 -23 -25 23 -25 24 22 23 c12 13 24 23 28 23 4 0 16 -10 28 -23z m415 -1 c15 -22 14 -25 -6 -44 -22 -20 -22 -20 -46 -1 -20 17 -22 21 -10 37 31 38 42 40 62 8z m115 1 l22 -23 -24 -23 -24 -23 -21 21 c-25 25 -25 26 -4 51 22 25 25 25 51 -3z m150 0 l22 -23 -25 -24 -25 -24 -20 22 c-24 26 -25 30 -3 54 21 23 25 23 51 -5z m120 0 l21 -22 -25 -24 -25 -24 -24 23 -25 24 22 23 c27 28 29 28 56 0z m145 2 c18 -20 18 -22 0 -42 -10 -12 -19 -24 -20 -26 -2 -3 -14 6 -28 19 l-25 24 22 23 c26 28 29 28 51 2z m114 -1 l23 -22 -22 -23 -22 -23 -22 21 c-22 21 -22 23 -6 45 21 29 21 29 49 2z m151 -1 l22 -23 -24 -23 -24 -23 -21 21 c-25 25 -26 29 -4 53 21 23 25 23 51 -5z m120 0 l22 -23 -25 -24 c-24 -23 -25 -23 -45 -5 -24 22 -25 33 -3 57 21 23 25 23 51 -5z m144 6 c23 -21 23 -29 -2 -55 l-20 -22 -25 24 -25 24 22 23 c26 27 26 28 50 6z m122 -8 c16 -25 16 -27 -6 -45 -23 -18 -23 -18 -46 3 l-22 21 22 23 c27 29 32 29 52 -2z m396 -20 c0 -25 -3 -45 -7 -45 -4 0 -17 10 -30 22 l-23 22 22 23 c31 33 38 29 38 -22z m-1863 -26 c5 -17 12 -20 47 -17 45 3 50 -5 24 -42 l-18 -24 -44 44 c-42 42 -49 60 -24 60 5 0 12 -9 15 -21z m-167 -30 c0 -3 -11 -16 -25 -29 l-25 -23 0 47 0 47 25 -18 c13 -10 25 -21 25 -24z m509 20 l24 -20 -23 -24 c-29 -31 -31 -31 -54 1 -18 25 -18 26 0 44 24 24 24 24 53 -1z m263 4 c23 -20 23 -25 -2 -53 l-20 -23 -25 23 -25 24 22 23 c26 27 26 28 50 6z m271 -3 l21 -20 -25 -25 -25 -26 -23 25 c-22 24 -22 25 -4 44 23 26 29 26 56 2z m265 -3 l22 -23 -25 -24 c-14 -13 -26 -22 -28 -19 -1 2 -11 14 -21 27 -18 21 -18 23 -1 42 23 25 27 25 53 -3z m267 3 c17 -19 17 -21 -1 -42 -10 -13 -20 -25 -21 -27 -2 -3 -14 6 -28 19 l-25 24 22 23 c26 28 30 28 53 3z m-1462 -60 c-28 -25 -34 -25 -57 1 -17 20 -17 22 5 45 l23 25 25 -26 25 -25 -21 -20z m266 44 l22 -25 -23 -19 c-29 -24 -31 -24 -52 -1 -17 19 -17 21 1 45 23 32 24 32 52 0z m264 -46 c-22 -21 -23 -21 -43 -3 -26 24 -39 11 -15 -15 18 -20 18 -21 -3 -42 l-22 -22 -25 24 -25 24 52 52 53 53 25 -25 24 -24 -21 -22z m322 -58 l-25 -24 -22 21 c-21 22 -21 23 -3 43 24 26 11 39 -15 15 -20 -18 -21 -18 -42 3 l-22 22 23 24 24 25 53 -52 54 -52 -25 -25z m209 104 c18 -26 18 -26 -2 -47 -21 -20 -22 -20 -42 -2 -26 24 -39 11 -15 -15 18 -20 18 -21 -3 -42 -21 -21 -22 -21 -42 -3 -11 10 -20 23 -20 28 0 10 91 106 100 106 3 0 13 -11 24 -25z m270 -43 c-23 -26 -36 -26 -59 -1 -18 20 -18 21 5 45 l24 26 24 -24 c23 -24 24 -25 6 -46z m260 43 c18 -26 18 -26 -3 -47 l-21 -21 -24 23 -25 23 22 23 c28 30 28 30 51 -1z m271 -44 c-23 -25 -36 -25 -59 1 -17 20 -17 22 5 45 l23 25 25 -25 c24 -25 24 -26 6 -46z m-1927 -13 c22 -23 22 -24 3 -45 -23 -27 -26 -27 -53 -2 l-22 20 24 25 c13 14 24 25 25 25 1 0 11 -10 23 -23z m118 -45 l-24 -25 -23 22 -23 21 24 25 24 25 23 -22 24 -22 -25 -24z m152 45 l22 -23 -25 -24 c-24 -23 -25 -23 -45 -5 -25 22 -25 30 -2 54 22 25 25 25 50 -2z m118 0 l25 -23 -26 -24 c-24 -23 -25 -23 -45 -5 -24 22 -25 29 -3 55 21 25 19 25 49 -3z m284 -23 c0 -7 -11 -19 -25 -28 -25 -16 -27 -16 -45 6 -18 23 -18 23 2 45 20 21 22 21 44 5 13 -9 24 -22 24 -28z m132 -20 c-21 -29 -27 -29 -54 -4 l-22 20 24 25 24 25 22 -21 c22 -21 22 -23 6 -45z m398 20 c0 -6 -9 -19 -20 -29 -20 -18 -21 -18 -45 5 l-25 24 21 22 c21 22 23 22 45 6 13 -9 24 -22 24 -28z m128 23 c22 -23 22 -24 3 -45 -23 -27 -26 -27 -53 -2 l-22 20 24 25 c13 14 24 25 25 25 1 0 11 -10 23 -23z m120 0 c22 -23 22 -24 3 -45 -23 -28 -36 -28 -55 -1 -13 20 -13 24 2 45 21 29 24 29 50 1z m150 0 l22 -23 -25 -24 c-24 -23 -25 -23 -45 -5 -25 22 -25 30 -2 54 22 25 25 25 50 -2z m112 3 c25 -25 25 -32 0 -55 -20 -18 -21 -18 -45 5 l-25 24 22 23 c26 28 23 28 48 3z m152 -4 c16 -23 16 -25 -2 -46 -20 -23 -20 -23 -43 -4 -12 10 -24 20 -26 21 -5 4 40 53 48 53 3 0 14 -11 23 -24z m118 -16 c0 -27 -11 -50 -22 -50 -6 0 -19 10 -29 22 -19 21 -19 22 2 45 17 17 25 20 36 12 7 -6 13 -20 13 -29z m-1917 -84 c-10 -12 -19 -23 -20 -25 -2 -3 -14 6 -28 19 l-25 24 22 23 22 23 23 -22 c22 -21 22 -22 6 -42z m263 -5 c-25 -24 -26 -24 -46 -6 -26 23 -25 40 2 59 20 15 24 14 45 -6 l24 -22 -25 -25z m284 27 c0 -11 -33 -48 -43 -48 -5 0 -17 10 -27 23 -18 21 -18 23 2 44 20 21 22 21 44 5 13 -9 24 -20 24 -24z m245 -27 l-25 -25 -20 21 c-25 28 -25 31 3 53 21 18 23 18 45 -3 l23 -21 -26 -25z m263 50 c27 -23 27 -33 2 -56 -20 -18 -21 -18 -45 5 l-25 24 22 23 c12 13 22 23 23 23 1 0 12 -8 23 -19z m267 -50 l-25 -25 -21 23 -21 22 23 25 23 24 23 -22 24 -22 -26 -25z m267 52 c23 -21 23 -36 -2 -58 -19 -17 -21 -17 -40 0 -24 22 -25 33 -3 57 20 22 22 22 45 1z m269 -54 l-21 -23 -25 24 -25 24 22 23 22 24 24 -25 25 -24 -22 -23z m-1461 -14 l-24 -26 -25 25 -25 25 23 25 23 25 26 -24 26 -24 -24 -26z m535 5 c-23 -25 -37 -25 -60 0 -18 20 -18 21 5 45 l24 26 25 -25 c24 -25 24 -26 6 -46z m525 -5 l-25 -24 -22 23 -22 23 22 27 21 26 25 -25 26 -25 -25 -25z m267 -1 l-22 -23 -24 24 -25 24 24 26 24 25 23 -26 23 -27 -23 -23z m-1853 44 c14 -20 14 -24 -1 -40 -25 -27 -33 -22 -33 22 0 45 11 51 34 18z m261 2 c17 -19 17 -21 0 -40 -22 -25 -31 -25 -56 -1 -20 19 -20 20 -2 39 23 26 36 27 58 2z m530 0 c18 -20 18 -21 -2 -42 -21 -21 -21 -21 -47 -1 l-25 20 22 21 c26 27 29 27 52 2z m535 -2 c18 -22 18 -24 0 -40 -24 -23 -33 -23 -55 2 -17 19 -17 21 0 40 23 26 33 25 55 -2z m-859 -102 l-23 -25 -26 24 -26 24 24 26 24 26 25 -25 25 -25 -23 -25z m512 43 c-36 -15 -47 -10 -28 11 14 16 21 18 32 8 13 -10 12 -13 -4 -19z m933 -44 l-24 -24 -23 25 -22 24 23 25 23 25 24 -26 23 -25 -24 -24z m132 1 l-3 -25 -28 25 -28 24 28 26 28 26 3 -26 c2 -14 2 -37 0 -50z m-1988 44 l21 -21 -23 -19 c-29 -24 -31 -24 -53 0 -17 19 -17 21 0 40 23 25 30 25 55 0z m145 0 c18 -20 18 -21 -5 -45 l-23 -25 -19 22 c-22 26 -22 27 -1 50 20 23 26 23 48 -2z m120 0 c17 -19 17 -21 0 -40 -23 -25 -36 -25 -59 1 -17 20 -17 22 1 39 24 24 36 24 58 0z m268 -1 l22 -20 -25 -19 c-31 -24 -33 -24 -55 0 -17 19 -17 21 0 40 23 25 30 25 58 -1z m146 0 c11 -19 10 -24 -8 -43 l-21 -20 -22 21 c-21 22 -21 23 -3 43 23 26 37 25 54 -1z m116 1 c17 -19 17 -21 0 -40 -10 -11 -23 -20 -29 -20 -6 0 -17 9 -24 20 -10 16 -10 24 0 40 7 11 18 20 24 20 6 0 19 -9 29 -20z m270 0 c20 -22 10 -25 -30 -10 -14 5 -23 14 -20 20 10 16 30 12 50 -10z m141 5 c18 -18 11 -50 -13 -59 -10 -4 -25 1 -37 13 -19 20 -19 21 -1 41 22 24 31 25 51 5z m121 -4 l22 -19 -51 -51 c-28 -28 -54 -51 -58 -51 -4 0 -15 9 -25 20 -18 20 -18 21 5 45 l24 25 23 -22 c26 -25 32 -14 6 14 -15 17 -15 19 2 38 22 24 24 24 52 1z m148 -1 c17 -19 17 -21 0 -40 -22 -25 -27 -25 -56 -1 l-24 19 20 21 c26 25 38 26 60 1z m120 0 c18 -20 18 -21 -5 -45 l-24 -26 -24 26 c-23 25 -23 27 -6 46 22 24 36 24 59 -1z m149 1 c17 -18 16 -20 -1 -40 -22 -26 -35 -26 -58 -1 -17 19 -17 21 0 40 23 25 37 25 59 1z m-1539 -101 c-22 -24 -24 -24 -54 1 l-24 20 24 24 24 23 24 -24 c24 -23 24 -24 6 -44z m285 19 c0 -4 -12 -14 -26 -24 -25 -16 -27 -16 -47 4 l-21 21 24 25 24 25 23 -22 c13 -12 23 -25 23 -29z m583 27 c29 -13 77 -44 105 -70 29 -25 58 -46 64 -46 7 0 22 -10 36 -22 21 -20 35 -23 115 -24 78 -1 100 -5 143 -27 54 -27 112 -85 140 -139 10 -19 19 -64 21 -108 3 -41 11 -92 19 -113 8 -20 14 -47 14 -60 0 -14 19 -39 54 -69 75 -66 99 -121 99 -223 0 -94 -16 -137 -74 -200 -23 -24 -56 -70 -75 -101 -30 -51 -34 -64 -34 -130 0 -95 -26 -164 -82 -221 -57 -59 -116 -84 -203 -89 -124 -6 -179 -27 -244 -94 -47 -47 -68 -62 -116 -75 -115 -34 -249 1 -314 82 -14 18 -30 33 -35 33 -5 0 -30 12 -55 27 -40 25 -57 28 -131 28 -68 1 -94 5 -127 23 -108 57 -161 138 -174 267 -13 137 -28 181 -80 224 -24 22 -57 64 -73 95 -24 46 -28 68 -28 131 0 62 5 85 27 130 16 30 45 70 66 90 20 19 41 45 44 57 4 13 16 33 27 45 16 17 20 37 22 115 1 79 6 101 28 143 54 103 143 157 263 160 39 1 80 7 92 13 12 7 34 12 50 12 22 0 41 13 81 56 96 102 220 131 335 80z m462 -46 c-23 -25 -30 -25 -57 0 l-22 20 24 25 24 26 25 -25 c24 -25 24 -26 6 -46z m268 0 c-28 -25 -35 -25 -58 0 -18 20 -18 21 5 45 l24 26 25 -26 25 -25 -21 -20z m-1858 40 c18 -19 17 -21 -5 -40 -13 -11 -25 -20 -27 -20 -1 0 -3 18 -3 40 0 45 8 49 35 20z m789 5 c19 -15 19 -15 -4 -40 l-24 -25 -23 22 -24 22 23 18 c28 21 28 21 52 3z m-664 -17 c18 -22 18 -24 -3 -46 l-21 -22 -22 21 c-21 20 -22 23 -7 45 19 30 30 30 53 2z m268 -1 l22 -23 -25 -24 -24 -23 -25 24 -25 24 21 22 c27 28 29 28 56 0z m264 3 c21 -19 21 -20 2 -42 -10 -13 -20 -25 -21 -27 -2 -3 -14 6 -28 19 -23 22 -23 23 -7 46 21 29 27 29 54 4z m798 -2 c18 -22 18 -24 -3 -46 l-21 -22 -22 21 c-22 21 -22 23 -6 45 21 29 29 30 52 2z m262 5 c23 -21 23 -36 -2 -58 -20 -18 -21 -18 -45 5 l-25 24 22 23 c26 27 26 28 50 6z m272 -4 c17 -20 17 -22 -5 -45 l-23 -24 -22 21 c-22 21 -22 23 -6 45 21 29 33 30 56 3z m-1254 -80 c0 -10 -73 -18 -83 -9 -4 4 2 19 15 33 l23 26 22 -21 c13 -12 23 -25 23 -29z m1041 29 c24 -30 24 -37 -3 -59 -21 -19 -22 -19 -40 0 -22 25 -22 26 0 56 21 30 20 30 43 3z m-1706 -8 c18 -20 18 -21 -6 -46 l-25 -25 -23 25 c-22 24 -22 25 -4 44 23 26 36 27 58 2z m114 -1 l25 -20 -25 -25 -25 -25 -23 25 c-22 23 -22 25 -5 45 22 25 23 25 53 0z m149 -2 c22 -23 22 -23 2 -40 -26 -22 -33 -21 -55 3 -17 19 -17 21 0 40 23 25 27 25 53 -3z m114 6 c24 -22 23 -38 -5 -56 -21 -14 -25 -13 -44 7 l-22 23 22 21 c26 26 26 26 49 5z m152 -2 c22 -25 11 -51 -23 -51 -43 0 -55 19 -29 47 26 28 30 28 52 4z m799 -2 c17 -20 17 -22 2 -39 -17 -19 -28 -17 -74 17 -5 3 39 43 48 43 4 0 15 -9 24 -21z m118 0 c19 -19 19 -22 4 -39 -18 -19 -47 -17 -66 6 -9 11 -8 19 6 34 23 25 30 25 56 -1z m147 -2 l21 -22 -23 -22 c-21 -20 -25 -21 -36 -8 -17 20 -27 19 -35 -5 -7 -21 -30 -27 -40 -10 -3 6 5 14 19 20 14 5 26 15 26 21 0 14 29 49 40 49 3 0 16 -10 28 -23z m267 3 c18 -20 18 -21 -4 -44 l-23 -25 -26 24 -26 24 25 20 c30 25 32 25 54 1z m109 4 c9 -25 7 -49 -6 -62 -9 -9 -17 -7 -34 9 -22 21 -22 23 -6 45 20 27 37 30 46 8z m-1911 -64 l21 -20 -25 -25 -25 -26 -24 26 c-23 24 -23 25 -5 45 23 25 30 25 58 0z m259 3 c25 -22 23 -41 -6 -54 -20 -9 -27 -8 -44 9 -20 20 -20 20 1 41 26 25 26 25 49 4z m1337 -7 l22 -24 -27 -21 -27 -21 -24 22 -23 22 22 23 c27 29 29 29 57 -1z m266 4 c18 -20 18 -21 -6 -46 l-25 -25 -24 26 c-23 24 -23 25 -5 45 23 25 37 25 60 0z m-1726 -22 c11 -18 10 -23 -8 -41 l-21 -21 -24 23 -25 24 21 22 c25 26 37 24 57 -7z m1590 -34 c-20 -21 -23 -22 -45 -7 -29 19 -29 21 -2 50 l22 23 23 -22 23 -22 -21 -22z m-1856 38 c16 -17 15 -20 -8 -42 l-25 -23 0 41 c0 46 8 52 33 24z m55 -55 l22 -23 -25 -24 -25 -23 -25 23 -25 24 22 23 c12 13 24 23 28 23 4 0 16 -10 28 -23z m144 6 c23 -21 23 -36 -2 -58 -20 -18 -21 -18 -45 5 l-25 24 22 23 c26 27 26 28 50 6z m114 -52 l-25 -25 -20 25 c-19 24 -19 24 2 47 l21 22 23 -22 24 -22 -25 -25z m1481 47 l23 -22 -21 -22 -22 -23 -28 20 -28 19 22 24 c28 30 26 30 54 4z m121 -1 l22 -23 -25 -24 -25 -24 -21 21 c-20 20 -20 22 -4 47 21 32 26 32 53 3z m132 -22 c0 -25 -3 -45 -7 -45 -4 0 -17 10 -30 22 l-23 22 22 23 c31 33 38 29 38 -22z m-2052 -38 l22 -23 -25 -24 -25 -23 0 46 c0 26 1 47 3 47 2 0 13 -10 25 -23z m263 4 c12 -11 18 -25 14 -31 -4 -6 -1 -17 5 -25 8 -9 8 -15 2 -15 -6 0 -13 6 -15 13 -4 9 -8 8 -16 -3 -8 -12 -14 -11 -36 10 l-25 24 22 23 c26 28 24 28 49 4z m1597 -4 l22 -23 -24 -23 c-23 -22 -25 -22 -45 -5 -26 22 -26 32 -3 55 22 23 25 23 50 -4z m-1723 -57 c-22 -25 -27 -25 -56 -1 l-24 19 24 26 25 27 25 -25 c24 -25 24 -26 6 -46z m1860 0 c-23 -25 -36 -25 -59 1 -17 20 -17 22 5 45 l23 25 25 -25 c24 -25 24 -26 6 -46z m-218 10 c9 0 13 -3 10 -7 -4 -3 -2 -12 4 -19 6 -8 8 -21 5 -31 -5 -13 -12 -7 -30 27 -12 25 -20 50 -17 55 3 6 7 2 9 -7 2 -10 11 -18 19 -18z m-1702 -70 c-23 -25 -30 -25 -57 0 l-22 20 24 25 24 26 25 -25 c24 -25 24 -26 6 -46z m110 1 l-25 -25 -22 22 -22 22 24 25 24 25 23 -22 24 -22 -26 -25z m1748 43 c18 -24 18 -26 1 -45 -21 -23 -23 -23 -54 1 l-25 19 24 25 c30 32 31 32 54 0z m117 -14 c0 -27 -11 -50 -22 -50 -6 0 -19 10 -29 22 -19 21 -19 22 2 45 17 17 25 20 36 12 7 -6 13 -20 13 -29z m-1918 -86 c-21 -29 -33 -30 -56 -3 -17 20 -17 22 5 45 l23 24 22 -21 c22 -21 22 -23 6 -45z m1859 -5 c-20 -22 -21 -22 -43 -3 -13 10 -25 20 -27 21 -3 2 6 14 19 28 l24 26 24 -25 25 -24 -22 -23z m-1741 5 c0 -50 -4 -53 -36 -23 l-23 21 21 29 c27 36 38 29 38 -27z m-247 22 c15 -22 15 -25 -2 -40 -26 -24 -31 -20 -31 24 0 46 11 51 33 16z m1859 0 c16 -22 16 -24 -6 -45 l-22 -21 -24 25 c-23 24 -23 25 -5 45 23 26 36 25 57 -4z m53 -103 c-14 -14 -27 -23 -28 -22 -1 2 -11 14 -21 27 -19 22 -19 23 3 46 l22 24 26 -26 25 -25 -27 -24z m133 3 l-3 -24 -29 23 -29 23 29 27 29 27 3 -26 c2 -14 2 -37 0 -50z m-1990 44 l23 -19 -50 -50 c-28 -28 -53 -51 -56 -51 -3 0 -5 18 -5 40 0 44 5 48 32 23 11 -9 18 -11 18 -5 0 7 -9 17 -20 24 -19 12 -19 13 2 35 26 27 27 28 56 3z m147 0 c17 -19 17 -21 -1 -42 -10 -13 -20 -24 -20 -26 -1 -2 -14 7 -28 19 l-26 23 22 23 c26 28 30 28 53 3z m48 -43 c3 -8 -5 -26 -17 -42 -20 -25 -23 -26 -36 -10 -12 14 -10 19 11 40 28 28 35 30 42 12z m1605 -62 c-26 -26 -27 -26 -37 -6 -14 26 -14 54 1 69 10 10 18 7 37 -12 l25 -25 -26 -26z m-1728 33 c18 -22 18 -24 -3 -46 l-21 -22 -22 21 c-22 21 -22 23 -6 45 21 29 29 30 52 2z m1860 0 c18 -22 18 -24 -3 -46 l-21 -22 -23 22 -23 22 22 23 c26 28 26 28 48 1z m-1916 -59 c17 -20 17 -22 -5 -45 l-23 -25 -25 25 -25 25 25 20 c30 25 31 25 53 0z m111 1 c18 -20 18 -21 -3 -43 l-22 -21 -21 21 c-20 20 -20 21 -3 42 23 26 26 26 49 1z m1750 0 c17 -19 17 -21 0 -40 -24 -26 -11 -39 15 -15 20 18 21 18 42 -3 l22 -22 -24 -25 -24 -25 -54 55 -55 54 24 20 c30 25 32 25 54 1z m109 4 c9 -25 7 -49 -6 -62 -9 -9 -17 -7 -34 9 -21 20 -22 23 -7 45 18 28 38 31 47 8z m-1914 -61 c18 -18 18 -19 -4 -46 l-22 -27 -24 25 -25 26 25 19 c31 24 27 24 50 3z m-127 -21 c16 -17 15 -20 -8 -42 l-25 -23 0 41 c0 46 8 52 33 24z m57 -57 c13 -14 22 -26 19 -28 -2 -1 -14 -11 -27 -21 -22 -19 -22 -19 -47 4 l-25 24 22 23 c27 29 29 29 58 -2z m1990 -20 c0 -25 -3 -45 -7 -45 -4 0 -17 10 -30 22 l-23 22 22 23 c31 33 38 29 38 -22z m-2047 -43 c16 -17 15 -20 -8 -42 l-25 -23 0 41 c0 46 8 52 33 24z m1994 -49 c-20 -21 -23 -18 -31 32 l-7 40 28 -27 c26 -26 26 -29 10 -45z m-1933 -25 c-2 -59 -13 -69 -46 -38 l-23 21 35 34 c19 19 35 34 36 34 0 1 0 -22 -2 -51z m1986 -8 c0 -50 -25 -64 -55 -30 -18 20 -18 21 5 45 18 19 26 22 37 14 7 -6 13 -20 13 -29z m-2050 -62 c18 -20 19 -23 3 -40 -25 -27 -33 -22 -33 22 0 22 2 40 5 40 2 0 13 -10 25 -22z m2000 7 c10 -13 10 -19 -5 -35 -26 -28 -32 -25 -27 15 5 38 13 43 32 20z m46 -133 c-3 -3 -17 6 -30 20 l-25 24 27 29 27 30 3 -49 c2 -26 1 -51 -2 -54z m-1990 67 l23 -21 -50 -51 c-27 -28 -52 -48 -55 -45 -3 3 -4 23 -2 44 3 36 4 37 21 20 10 -10 21 -15 25 -11 4 4 -3 15 -15 24 l-22 18 22 22 c26 26 26 26 53 0z m1933 -118 c-24 -19 -24 -19 -47 2 l-22 21 22 23 22 24 25 -25 25 -25 -25 -20z m-1864 33 c16 -24 16 -26 -2 -39 -16 -12 -21 -11 -40 7 -22 20 -22 23 -6 40 21 24 28 23 48 -8z m-53 -48 c16 -22 16 -24 -6 -45 l-22 -21 -24 25 -23 24 24 20 c30 25 30 25 51 -3z m1861 0 c14 -21 14 -25 -1 -39 -22 -22 -7 -34 16 -14 18 16 20 16 42 -3 l23 -20 -23 -25 -24 -25 -52 52 -53 53 21 22 c27 29 32 29 51 -1z m111 8 c9 -25 7 -49 -6 -62 -9 -9 -17 -7 -35 10 l-23 22 22 23 c25 27 34 29 42 7z m-1866 -17 c21 -23 21 -24 5 -40 -17 -14 -20 -14 -40 3 -26 21 -28 26 -10 45 16 19 20 19 45 -8z m-28 -68 c0 -3 -10 -15 -23 -27 l-23 -22 -24 25 -23 24 24 20 c22 17 25 18 46 2 12 -9 23 -19 23 -22z m-145 1 c18 -19 17 -21 -5 -40 -13 -11 -25 -20 -27 -20 -1 0 -3 18 -3 40 0 45 8 49 35 20z m1889 -30 l49 -49 -24 -20 c-30 -25 -32 -25 -54 -1 -17 19 -17 21 0 40 24 26 11 39 -15 15 -15 -14 -23 -15 -34 -6 -12 11 -12 16 2 42 9 16 19 29 22 29 3 0 27 -23 54 -50z m-1661 3 c6 -33 3 -42 -23 -68 l-30 -30 -25 26 -26 25 27 25 c19 16 28 20 31 11 5 -12 43 -37 43 -28 0 3 -10 14 -22 25 -17 17 -19 23 -8 36 19 23 27 18 33 -22z m-173 -28 c13 -14 22 -26 19 -28 -2 -1 -14 -11 -27 -21 -22 -19 -23 -19 -46 3 l-25 23 22 23 c28 30 29 30 57 0z m1990 -27 l0 -52 -30 29 -30 29 22 23 c32 34 38 29 38 -29z m-234 -7 c-13 -20 -26 -11 -26 16 0 25 1 26 16 11 9 -9 13 -21 10 -27z m-1566 -46 c0 -50 -12 -57 -40 -22 -18 21 -18 23 2 45 31 32 38 28 38 -23z m1608 -25 c-11 -16 -18 -35 -15 -44 4 -10 1 -13 -9 -9 -7 3 -14 15 -14 28 0 13 -7 25 -15 29 -22 8 -18 31 8 49 20 14 24 13 44 -5 l22 -20 -21 -28z m-1855 42 c16 -17 15 -20 -8 -42 l-25 -23 0 41 c0 46 8 52 33 24z m132 -12 c18 -20 18 -21 -6 -46 l-25 -25 -24 26 c-23 24 -23 25 -5 45 23 25 37 25 60 0z m1860 0 c18 -20 18 -21 -6 -46 l-25 -25 -24 26 c-23 24 -23 25 -5 45 23 25 37 25 60 0z m-1920 -100 c-23 -25 -37 -25 -60 0 -18 20 -18 21 5 45 l24 26 25 -25 c24 -25 24 -26 6 -46z m120 0 c-23 -25 -37 -25 -60 0 -18 20 -18 21 5 45 l24 26 25 -25 c24 -25 24 -26 6 -46z m1740 0 c-22 -24 -24 -24 -55 0 l-25 19 25 25 25 24 24 -24 c24 -23 24 -24 6 -44z m115 30 c0 -50 -25 -64 -55 -30 -18 20 -18 21 5 45 18 19 26 22 37 14 7 -6 13 -20 13 -29z m-215 -42 l45 -42 -21 -23 c-21 -21 -23 -21 -45 -5 -27 20 -30 35 -9 52 12 10 13 15 4 21 -20 12 -49 -8 -42 -29 4 -13 3 -14 -6 -6 -9 8 -8 18 6 42 10 18 19 32 21 32 1 0 22 -19 47 -42z m-1700 -8 c18 -20 18 -21 -6 -46 l-25 -25 -24 26 c-23 24 -23 25 -5 45 23 25 37 25 60 0z m1860 0 c18 -20 18 -21 -6 -46 l-25 -25 -24 26 c-23 24 -23 25 -5 45 23 25 37 25 60 0z m-1995 -12 c18 -20 19 -23 3 -40 -25 -27 -33 -22 -33 22 0 22 2 40 5 40 2 0 13 -10 25 -22z m262 5 c24 -21 23 -31 -4 -53 -22 -18 -24 -18 -46 3 l-22 21 22 23 c26 27 26 28 50 6z m1784 -131 c-4 -3 -17 5 -31 18 l-25 24 27 29 28 29 3 -47 c2 -26 1 -50 -2 -53z m-1988 65 l22 -23 -24 -23 -24 -23 -26 23 -26 23 22 23 c27 28 29 28 56 0z m147 3 c17 -19 17 -21 0 -40 -24 -26 -11 -39 15 -15 20 18 21 18 42 -3 l22 -22 -24 -25 -24 -25 -52 52 -52 53 21 23 c25 27 29 27 52 2z m110 -6 c16 -24 16 -27 -1 -45 -17 -19 -18 -19 -40 2 -22 21 -22 23 -6 45 22 30 26 30 47 -2z m1485 4 c18 -22 18 -24 -2 -45 l-21 -22 -27 22 -28 22 22 22 c27 28 34 28 56 1z m119 1 l24 -20 -55 -54 -54 -55 -24 25 -24 25 22 22 c21 21 22 21 42 3 26 -24 39 -11 15 15 -17 19 -17 21 0 40 22 24 24 24 54 -1z m-1919 -59 c22 -19 23 -21 5 -40 -27 -29 -35 -25 -35 20 0 22 2 40 3 40 2 0 14 -9 27 -20z m131 -61 l-22 -21 -25 23 -24 23 22 23 22 24 25 -26 25 -25 -23 -21z m1595 45 c16 -24 16 -26 -4 -47 l-22 -21 -25 24 -25 24 22 23 c27 29 34 29 54 -3z m264 -44 c-23 -17 -26 -17 -42 -3 -24 22 -36 8 -14 -16 17 -18 17 -20 -4 -41 -21 -21 -22 -21 -43 -3 -12 10 -24 19 -26 20 -3 2 20 28 50 58 l54 55 25 -26 25 -25 -25 -19z m-1600 40 l24 -21 -22 -21 -22 -22 -25 24 c-23 22 -24 25 -8 42 20 23 25 23 53 -2z m-318 -96 c-21 -28 -21 -28 -51 -3 l-24 20 23 24 24 25 22 -21 c22 -21 22 -23 6 -45z m172 -12 l39 -43 -21 -21 c-21 -21 -22 -21 -42 -3 -26 24 -39 11 -15 -15 18 -20 18 -21 -3 -42 l-22 -22 -25 24 -25 23 51 49 c28 26 48 52 44 58 -9 14 -26 12 -46 -6 -16 -14 -19 -14 -38 5 -26 26 -26 29 1 51 26 21 36 15 102 -58z m92 9 c-25 -24 -26 -24 -46 -6 -25 23 -25 33 2 56 21 19 22 19 45 -3 l24 -22 -25 -25z m122 46 l22 -23 -25 -24 -25 -23 -25 23 -25 24 22 23 c12 13 24 23 28 23 4 0 16 -10 28 -23z m1208 -46 c-25 -24 -26 -24 -46 -6 -26 23 -25 40 2 59 20 15 24 14 45 -6 l24 -22 -25 -25z m116 52 c23 -21 23 -36 -2 -58 -20 -18 -21 -18 -45 5 l-25 24 22 23 c26 27 26 28 50 6z m268 -27 c0 -11 -5 -28 -10 -36 -7 -12 -13 -11 -35 10 l-25 24 22 23 c24 26 48 16 48 -21z m-1353 -5 c25 -18 28 -27 13 -36 -12 -7 -59 25 -60 42 0 6 -6 14 -12 17 -7 3 -2 3 12 -1 14 -3 35 -13 47 -22z m819 -20 l-25 -25 -21 24 c-27 32 -25 38 13 42 50 5 63 -10 33 -41z m-892 30 c3 -4 -6 -19 -19 -31 l-25 -23 -25 23 c-31 29 -24 40 25 40 21 0 41 -4 44 -9z m796 -1 c0 -5 -9 -19 -20 -30 -19 -19 -21 -20 -46 -3 l-27 17 34 12 c43 16 59 17 59 4z m-1271 -57 c3 -2 -6 -14 -19 -28 l-24 -25 -23 22 -23 22 22 23 c21 22 22 22 42 6 12 -10 23 -19 25 -20z m249 14 l22 -23 -25 -24 c-24 -23 -25 -23 -45 -5 -24 22 -25 33 -3 57 21 23 25 23 51 -5z m265 2 c18 -20 18 -22 0 -42 -10 -12 -19 -24 -20 -26 -2 -3 -14 6 -28 19 l-25 24 22 23 c26 28 29 28 51 2z m796 0 l24 -20 -23 -24 c-29 -30 -31 -30 -53 0 -17 23 -17 25 0 44 23 24 23 24 52 0z m263 4 c23 -21 23 -36 -2 -58 -20 -18 -21 -18 -45 5 l-25 24 22 23 c26 27 26 28 50 6z m287 -23 c1 -3 -8 -16 -19 -30 l-19 -25 -27 27 -28 27 24 19 c23 18 26 19 47 3 12 -9 22 -18 22 -21z m-1459 -21 c0 -4 -12 -14 -26 -24 -25 -16 -27 -16 -47 4 l-21 21 24 25 24 25 23 -22 c13 -12 23 -25 23 -29z m1045 -19 c-23 -25 -30 -25 -57 0 l-22 20 24 25 24 26 25 -25 c24 -25 24 -26 6 -46z m321 -63 l-25 -25 -22 24 c-21 22 -21 25 -6 42 25 28 20 37 -9 17 -25 -16 -27 -16 -47 4 l-21 21 24 25 23 25 54 -55 53 -54 -24 -24z m-1911 103 c17 -19 17 -21 0 -40 -27 -29 -35 -25 -35 20 0 45 8 49 35 20z m779 -6 c17 -24 17 -27 2 -42 -14 -14 -17 -14 -36 3 -24 22 -38 14 -15 -8 20 -20 19 -30 -5 -52 -19 -17 -21 -17 -40 0 -11 10 -19 22 -18 27 4 10 81 96 88 97 3 0 13 -11 24 -25z m574 -23 l51 -48 -25 -24 -24 -23 -22 22 c-21 21 -21 22 -3 42 24 26 11 39 -15 15 -20 -18 -21 -18 -42 3 -21 21 -21 22 -3 42 10 11 21 20 24 20 4 0 30 -22 59 -49z m-1288 -36 c7 -8 11 -17 9 -18 -2 -1 -14 -11 -27 -21 -22 -19 -23 -19 -46 3 l-24 22 22 23 c22 23 41 21 66 -9z m253 9 c18 -24 18 -26 1 -45 -22 -25 -32 -24 -54 4 -18 21 -18 23 2 45 27 27 29 27 51 -4z m147 -47 l-22 -26 -26 24 -26 24 24 26 24 26 24 -24 24 -24 -22 -26z m119 4 c-30 -25 -32 -25 -54 -1 -18 20 -18 21 5 45 l24 26 25 -25 25 -25 -25 -20z m677 0 l-25 -25 -25 23 -25 23 27 23 27 24 23 -22 23 -21 -25 -25z m389 -1 c-22 -25 -26 -25 -55 0 l-23 20 23 25 24 26 25 -25 c24 -25 24 -26 6 -46z m146 1 c-26 -26 -33 -26 -56 -1 -18 20 -18 21 5 45 l24 26 24 -25 24 -24 -21 -21z m249 17 l0 -52 -30 29 -30 29 22 23 c32 34 38 29 38 -29z m-1180 1 c0 -3 -9 -14 -20 -24 -20 -18 -21 -18 -45 5 -23 22 -24 25 -9 42 16 17 18 17 45 1 16 -10 29 -20 29 -24z m665 21 c17 -19 17 -21 0 -40 -22 -24 -24 -24 -54 1 -23 19 -23 20 -6 39 23 25 37 25 60 0z m-1255 -74 c0 -13 -31 -46 -42 -46 -6 0 -18 10 -28 23 -18 21 -18 23 2 44 20 21 22 21 44 5 13 -9 24 -21 24 -26z m270 -7 c0 -4 -11 -14 -25 -23 -24 -16 -26 -15 -47 4 l-22 20 24 25 24 25 23 -22 c13 -12 23 -25 23 -29z m260 5 c0 -6 -9 -19 -20 -29 -20 -18 -21 -18 -45 5 l-25 24 22 21 c21 20 25 21 45 6 12 -9 23 -21 23 -27z m522 -20 c-21 -29 -34 -30 -57 -4 -18 20 -18 21 5 45 l24 25 22 -21 c22 -21 22 -23 6 -45z m261 -4 c-28 -25 -31 -25 -53 3 -18 21 -18 23 3 45 l21 23 25 -26 25 -25 -21 -20z m269 4 c-21 -29 -34 -30 -57 -4 -18 20 -18 21 5 45 l24 25 22 -21 c22 -21 22 -23 6 -45z m-1858 37 c17 -18 16 -20 -1 -40 -25 -30 -33 -26 -33 19 0 44 8 49 34 21z m128 -11 l22 -20 -24 -25 -24 -25 -22 21 c-21 20 -22 23 -7 45 19 29 28 30 55 4z m290 -27 c26 -26 48 -52 48 -58 0 -5 -11 -18 -24 -27 -23 -17 -25 -17 -41 8 -16 24 -15 27 1 45 23 26 11 36 -14 11 -18 -18 -19 -18 -45 2 l-27 22 22 22 c12 12 25 22 27 22 3 0 27 -21 53 -47z m243 27 c18 -20 18 -21 -5 -45 l-24 -25 -22 21 c-22 21 -22 23 -6 45 21 29 34 30 57 4z m267 -4 c16 -22 16 -24 -6 -45 l-22 -21 -24 25 c-23 24 -23 25 -5 45 23 26 36 25 57 -4z m145 8 c3 -9 -3 -23 -15 -35 -26 -24 -28 -24 -54 1 -17 16 -19 22 -8 35 16 20 69 20 77 -1z m118 -4 c18 -20 18 -21 -5 -45 l-24 -25 -23 22 -23 22 22 23 c26 28 30 28 53 3z m268 -4 c15 -22 14 -25 -7 -45 l-22 -21 -23 24 c-22 23 -22 25 -5 45 24 27 38 27 57 -3z m289 -23 c26 -26 48 -52 48 -58 0 -7 -11 -17 -24 -25 -21 -11 -27 -10 -40 3 -20 20 -20 26 1 49 24 26 9 34 -17 8 l-21 -21 -20 22 c-10 12 -22 19 -26 16 -3 -4 2 -16 11 -26 16 -18 17 -21 1 -45 -16 -25 -18 -25 -41 -8 -13 9 -24 21 -24 27 0 9 90 105 99 105 3 0 27 -21 53 -47z m242 26 c18 -21 17 -22 -6 -46 l-24 -24 -23 25 c-22 23 -22 25 -5 45 23 26 35 26 58 0z m-1805 -105 l-23 -25 -25 25 -25 25 23 25 23 25 25 -25 25 -25 -23 -25z m531 1 l-24 -26 -24 24 -24 24 23 27 23 27 25 -25 25 -25 -24 -26z m149 -1 l-23 -25 -25 25 -25 25 24 26 23 25 24 -26 24 -26 -22 -24z m381 1 l-24 -26 -24 24 -24 24 24 25 23 25 24 -23 25 -23 -24 -26z m150 0 l-24 -26 -25 25 -25 25 24 26 24 26 25 -25 25 -25 -24 -26z m-1325 45 c17 -19 17 -21 0 -40 -23 -25 -37 -25 -60 0 -18 20 -18 21 1 40 25 24 37 25 59 0z m257 3 c22 -19 23 -30 4 -49 -19 -19 -30 -18 -51 6 -17 19 -17 21 0 40 22 24 24 24 47 3z m273 -3 c17 -19 17 -21 0 -40 -23 -25 -37 -25 -59 -1 -17 18 -17 20 1 39 23 26 36 27 58 2z m385 -1 l24 -21 -24 -19 c-31 -23 -33 -23 -55 1 -17 19 -17 21 0 40 22 24 24 24 55 -1z m145 1 c17 -19 17 -21 0 -40 -21 -24 -32 -25 -51 -6 -18 19 -18 25 3 48 20 23 26 23 48 -2z m386 -1 l21 -21 -21 -19 c-25 -24 -34 -24 -56 1 -17 19 -17 21 0 40 23 25 30 25 56 -1z m414 1 c17 -19 17 -21 0 -40 -22 -25 -27 -25 -56 -1 l-24 19 25 21 c31 25 33 25 55 1z m111 -5 c13 -52 -17 -72 -51 -35 -17 19 -17 21 0 40 24 27 43 25 51 -5z m-1913 -55 l21 -20 -25 -25 -25 -26 -24 26 c-23 24 -23 25 -5 45 23 25 30 25 58 0z m260 6 c22 -17 21 -22 -2 -52 l-18 -23 -23 24 c-23 24 -23 25 -5 45 21 23 24 24 48 6z m272 -6 c18 -20 18 -21 -6 -46 l-25 -25 -24 26 c-23 24 -23 25 -5 45 23 25 37 25 60 0z m265 0 l25 -19 -26 -26 -25 -26 -24 26 c-23 24 -23 25 -5 45 22 24 24 24 55 0z m265 0 c18 -20 18 -21 -5 -45 l-23 -25 -19 22 c-23 26 -23 37 0 54 23 18 26 17 47 -6z m270 0 c18 -20 18 -21 -6 -46 l-25 -25 -24 26 c-23 24 -23 25 -5 45 23 25 37 25 60 0z m258 6 c9 -7 17 -17 17 -22 -1 -11 -39 -59 -43 -53 -1 2 -11 14 -21 27 -18 21 -18 23 -1 42 21 23 24 24 48 6z m272 -6 c18 -20 18 -21 -6 -46 l-25 -25 -24 26 c-23 24 -23 25 -5 45 23 25 37 25 60 0z m-1997 -13 l22 -23 -25 -24 -25 -23 0 46 c0 26 1 47 3 47 2 0 13 -10 25 -23z m264 6 c30 -27 22 -41 -23 -39 -29 0 -43 -4 -50 -17 -6 -9 -17 -17 -26 -17 -10 0 0 16 28 45 24 25 46 45 48 45 2 0 13 -7 23 -17z m266 -50 c-20 -22 -23 -22 -40 -6 -24 21 -36 9 -15 -15 16 -17 16 -20 -6 -40 l-23 -22 -24 25 -24 25 24 17 c12 9 30 25 39 36 41 49 42 50 67 26 l24 -23 -22 -23z m264 50 c23 -21 23 -36 -2 -58 -20 -18 -21 -18 -45 5 l-25 24 22 23 c26 27 26 28 50 6z m326 -110 l-22 -23 -23 22 c-22 20 -22 23 -6 40 21 23 8 37 -14 15 -16 -15 -18 -15 -35 0 -23 21 -37 8 -15 -14 15 -16 15 -18 0 -35 -21 -23 -9 -36 15 -15 16 14 19 14 42 -3 l25 -19 -24 -25 -25 -26 -52 52 -53 52 52 53 51 52 53 -52 52 -52 -21 -22z m210 104 l22 -23 -25 -24 c-24 -23 -25 -23 -45 -5 -24 22 -25 33 -3 57 21 23 25 23 51 -5z m266 -2 c15 -23 15 -26 -5 -46 l-21 -21 -24 23 -24 23 22 23 c27 29 32 29 52 -2z m278 -47 c-4 -23 -2 -29 8 -23 10 6 11 1 6 -19 -4 -18 -3 -25 4 -21 5 3 10 1 10 -5 0 -7 -7 -9 -16 -6 -8 3 -26 -1 -39 -10 -24 -16 -25 -15 -41 25 -9 23 -22 41 -29 41 -21 0 -28 19 -11 26 20 8 42 -15 55 -57 10 -32 10 -31 5 14 -3 28 -1 47 5 47 5 0 11 -17 13 -37 l3 -38 6 43 5 43 -33 -6 c-40 -7 -46 15 -11 39 20 14 24 14 43 -4 16 -15 20 -28 17 -52z m-1814 -11 l22 -23 -25 -24 -25 -23 -25 23 -25 24 22 23 c12 13 24 23 28 23 4 0 16 -10 28 -23z m263 7 c11 -14 10 -15 -11 -12 -13 1 -25 9 -28 16 -5 17 23 15 39 -4z m267 -7 l21 -22 -53 -53 -52 -52 -24 25 -24 25 23 21 c21 20 23 20 42 3 25 -23 37 -10 14 16 -17 19 -17 21 0 40 23 25 27 25 53 -3z m150 0 l22 -23 -24 -23 -24 -23 -26 23 -26 23 22 23 c27 28 29 28 56 0z m120 0 l22 -23 -26 -23 -26 -23 -24 23 -24 23 22 23 c27 28 29 28 56 0z m410 0 l22 -23 -24 -23 -24 -23 -26 23 -26 23 22 23 c27 28 29 28 56 0z m120 0 l22 -23 -25 -24 c-24 -23 -25 -23 -45 -5 -24 22 -25 33 -3 57 21 23 25 23 51 -5z m147 3 c17 -19 17 -21 0 -40 -24 -26 -11 -39 15 -15 20 18 21 18 42 -3 l22 -22 -24 -25 -24 -25 -52 52 -53 53 21 22 c26 28 30 28 53 3z m118 -4 c14 -21 14 -25 -6 -44 l-21 -22 -23 22 -23 22 22 23 c27 29 32 29 51 -1z m397 -21 c0 -25 -3 -45 -7 -45 -4 0 -17 10 -30 22 l-23 22 22 23 c31 33 38 29 38 -22z m-1789 8 c0 -25 1 -26 9 -8 8 18 9 18 10 -5 0 -22 2 -23 11 -7 15 26 32 21 19 -5 -10 -21 -9 -21 9 2 11 14 23 21 27 17 4 -4 -6 -22 -22 -40 l-29 -32 31 28 c37 33 44 34 44 2 0 -16 -9 -29 -27 -39 l-28 -15 35 5 35 5 -30 -15 -30 -15 38 5 c24 4 37 2 37 -5 0 -7 -20 -11 -51 -11 -50 0 -51 1 -45 25 5 18 2 25 -8 25 -9 0 -22 12 -30 28 -11 19 -15 22 -16 10 0 -10 -5 -18 -11 -18 -6 0 -8 7 -5 16 3 9 6 29 6 45 0 37 20 38 21 2z m-47 -43 l7 -45 -16 34 c-16 37 -21 81 -6 66 5 -6 12 -30 15 -55z m-34 21 c13 -26 13 -34 -2 -25 -10 6 -10 4 0 -7 28 -31 9 -30 -23 1 -19 19 -35 38 -35 42 0 17 50 7 60 -11z m1586 2 c13 -17 14 -17 8 2 -5 14 -4 17 4 10 6 -5 14 -26 17 -45 l6 -35 -37 35 c-21 19 -32 27 -25 18 14 -19 5 -23 -18 -9 -18 11 -7 41 15 41 9 0 23 -8 30 -17z m201 5 c8 -6 11 -23 8 -42 -5 -28 -4 -29 9 -13 13 16 14 16 20 1 4 -10 1 -21 -6 -26 -10 -6 -10 -8 0 -8 6 0 12 -7 12 -15 0 -10 -11 -15 -32 -16 l-33 -2 35 -7 c36 -8 33 -12 -8 -12 -20 0 -20 -1 -2 -5 31 -7 24 -22 -9 -20 -31 2 -64 27 -36 27 8 0 15 5 15 10 0 6 -7 10 -15 10 -10 0 -15 10 -15 30 0 23 4 28 16 23 13 -5 13 -7 2 -14 -7 -5 -8 -9 -3 -9 6 0 17 5 25 10 12 8 12 10 1 10 -11 0 -11 3 -1 15 10 12 10 15 0 15 -7 0 -10 7 -6 18 3 9 -7 2 -22 -15 -16 -18 -32 -33 -37 -33 -4 0 -1 8 8 18 9 10 14 27 11 39 -5 17 -1 21 23 21 15 0 34 -5 40 -10z m-1948 -45 c6 -4 -31 -43 -41 -43 -4 0 -8 19 -8 42 l0 41 23 -19 c12 -10 24 -20 26 -21z m773 20 c24 -21 23 -39 -4 -57 -20 -15 -24 -14 -45 6 l-23 22 22 23 c26 27 26 28 50 6z m536 -6 l22 -23 -23 -22 c-23 -22 -32 -20 -56 11 -12 15 -11 20 4 37 23 25 27 25 53 -3z m-666 -59 l-22 -22 -25 24 -25 24 22 23 22 24 25 -26 25 -25 -22 -22z m267 3 c-30 -25 -32 -25 -54 -1 -18 20 -18 21 5 45 l24 26 25 -25 25 -25 -25 -20z m265 43 c18 -26 18 -26 -2 -47 -21 -20 -22 -20 -42 -2 -24 22 -25 33 -3 57 21 23 24 23 47 -8z m286 -25 c0 -4 -11 -14 -25 -23 -24 -16 -26 -15 -47 4 l-22 20 24 25 24 25 23 -22 c13 -12 23 -25 23 -29z m277 8 c42 -24 28 -41 -40 -45 l-51 -3 19 21 c10 11 25 18 32 15 39 -16 45 -15 18 2 -25 16 -32 17 -43 6 -7 -7 -18 -13 -23 -13 -16 0 -10 28 8 38 19 11 32 7 80 -21z m-1613 -1 c30 -20 33 -26 21 -36 -21 -18 -95 -26 -95 -10 0 8 9 10 28 6 26 -6 26 -6 7 10 -19 15 -18 16 15 9 34 -6 34 -6 10 8 -47 26 -88 -14 -73 -71 7 -28 -10 -29 -38 -1 l-21 21 44 44 c23 24 48 44 55 44 7 0 28 -11 47 -24z m266 9 c7 -9 10 -18 7 -21 -10 -11 -37 5 -37 21 0 19 14 19 30 0z m-148 -27 c30 -23 27 -71 -4 -85 -37 -16 -68 3 -68 42 0 23 6 35 23 43 29 14 30 14 49 0z m1609 2 c27 -15 26 -66 -2 -80 -52 -28 -102 28 -64 70 20 22 37 25 66 10z m-1413 -23 l22 -23 -24 -23 c-14 -13 -29 -21 -34 -17 -7 4 -9 69 -3 84 3 8 20 -1 39 -21z m151 -9 c11 -18 10 -23 -8 -41 l-21 -21 -25 24 -25 24 21 22 c24 25 38 23 58 -8z m131 -20 c0 -4 -11 -15 -24 -23 -23 -15 -26 -15 -46 5 l-22 22 23 24 23 24 23 -22 c13 -12 23 -25 23 -30z m132 -14 c-21 -29 -34 -30 -57 -4 -18 20 -18 21 5 45 l24 25 22 -21 c22 -21 22 -23 6 -45z m116 43 l22 -23 -25 -24 -25 -24 -21 21 c-20 20 -20 22 -4 47 21 32 26 32 53 3z m149 -1 l22 -23 -24 -23 -25 -23 -25 23 -25 24 22 23 c26 28 28 28 55 -1z m111 5 c27 -23 27 -33 2 -56 -20 -18 -21 -18 -45 5 l-25 24 22 23 c12 13 22 23 23 23 1 0 12 -8 23 -19z m153 -50 c-26 -26 -23 -25 -51 -1 l-23 20 23 25 24 26 24 -25 24 -24 -21 -21z m119 44 l23 -24 -24 -20 c-30 -25 -32 -25 -53 -2 -17 19 -17 21 1 45 22 32 24 32 53 1z m142 -15 c6 -41 -15 -59 -42 -35 -25 23 -25 33 1 56 26 23 35 18 41 -21z m388 0 c0 -28 -11 -50 -25 -50 -7 0 -16 -10 -20 -22 -6 -20 -8 -20 -12 -6 -2 10 3 25 11 34 9 8 16 31 16 51 0 30 2 34 15 23 8 -7 15 -21 15 -30z m-1895 -10 c-3 -5 -1 -10 4 -10 7 0 7 -7 -1 -20 -7 -11 -16 -20 -21 -20 -4 0 -6 4 -3 9 3 4 -7 6 -22 3 -31 -5 -20 12 13 22 11 3 3 3 -17 0 -22 -3 -38 -1 -38 5 0 5 19 12 43 14 23 2 43 4 45 5 2 1 0 -2 -3 -8z m1600 0 c-19 -8 -19 -9 2 -9 22 -1 22 -2 6 -21 -18 -20 -39 -28 -28 -10 3 6 -1 7 -10 4 -17 -7 -58 24 -49 37 3 5 26 9 52 8 35 0 42 -3 27 -9z m-1355 -10 c0 -5 -7 -10 -16 -10 -9 0 -12 -5 -8 -11 5 -8 -1 -10 -19 -7 -15 3 -24 1 -21 -3 3 -5 1 -9 -3 -9 -5 0 -14 9 -20 19 -10 15 -10 21 0 24 22 10 87 7 87 -3z m280 -46 c0 -6 -9 -19 -20 -29 -20 -18 -21 -18 -45 5 l-25 24 21 22 c21 22 23 22 45 6 13 -9 24 -22 24 -28z m246 -23 c-25 -24 -26 -24 -46 -6 -26 23 -25 33 3 55 21 18 23 18 45 -3 l23 -21 -25 -25z m264 49 c25 -25 25 -32 0 -55 -20 -18 -21 -18 -45 5 l-25 24 22 23 c26 28 23 28 48 3z m265 -49 l-25 -25 -21 23 -21 22 23 25 23 24 23 -22 24 -22 -26 -25z m-927 -15 l-26 -25 -23 25 -22 24 23 25 24 26 25 -26 26 -25 -27 -24z m532 -1 l-24 -26 -25 25 -25 25 24 26 24 26 25 -25 25 -25 -24 -26z m-1055 45 c17 -19 17 -21 0 -40 -27 -29 -35 -25 -35 20 0 45 8 49 35 20z m356 -30 c5 0 9 -7 9 -15 0 -22 -10 -19 -47 17 -42 40 -43 58 -2 24 17 -14 35 -26 40 -26z m434 30 c18 -20 18 -21 -3 -42 -21 -21 -22 -21 -42 -3 -26 24 -39 11 -15 -15 17 -19 17 -21 0 -40 -24 -26 -12 -37 13 -12 18 18 19 18 41 0 29 -23 21 -48 -17 -48 -19 0 -40 12 -67 40 l-39 40 49 50 c27 28 52 50 56 50 3 0 14 -9 24 -20z m564 -31 l49 -50 -42 -39 c-26 -26 -51 -40 -68 -40 -35 0 -44 16 -22 41 21 23 31 24 51 4 22 -23 30 -9 8 15 -17 19 -17 21 -2 38 25 28 20 36 -9 17 -25 -16 -27 -16 -47 4 -20 20 -20 21 -2 41 10 11 22 20 26 20 5 0 31 -23 58 -51z m236 31 c18 -20 18 -21 -6 -45 l-24 -24 -22 23 c-21 22 -21 24 -5 44 21 27 34 27 57 2z m320 10 c4 -6 15 -8 24 -5 10 3 24 -1 31 -10 13 -15 2 -21 -16 -7 -5 4 -1 -1 10 -11 18 -17 18 -18 1 -37 -12 -13 -22 -17 -28 -11 -5 5 -15 7 -21 5 -6 -2 -19 9 -29 25 -25 42 -20 51 8 16 14 -17 25 -24 25 -16 0 11 5 9 23 -5 20 -17 20 -17 -2 8 -13 15 -29 25 -35 21 -6 -3 -8 -3 -4 2 4 4 3 14 -3 22 -8 9 -8 13 -1 13 6 0 14 -5 17 -10z m-1786 -16 c7 -6 -44 -21 -56 -17 -7 3 -13 11 -13 19 0 10 9 12 33 7 17 -3 34 -7 36 -9z m61 1 c10 -12 8 -14 -8 -10 -12 2 -29 -6 -43 -21 -25 -26 -39 -31 -39 -11 1 11 55 54 71 56 4 1 12 -6 19 -14z m224 6 c3 -4 -3 -16 -14 -26 -19 -17 -20 -17 -20 2 0 29 22 45 34 24z m1284 -19 l4 -23 33 25 c27 21 38 24 58 17 14 -6 28 -7 31 -4 10 10 6 -19 -8 -56 -8 -22 -15 -30 -20 -23 -4 6 -2 20 4 31 5 11 10 23 10 28 -1 4 -8 -4 -16 -19 -8 -16 -20 -28 -26 -28 -6 0 -5 6 3 18 10 12 8 12 -10 -3 l-23 -20 23 -4 c29 -4 41 -21 27 -38 -8 -10 -25 1 -73 50 -61 60 -71 82 -37 75 10 -2 18 -14 20 -26z m-1469 -59 c1 -37 -3 -40 -26 -17 -14 13 -14 21 -3 57 12 40 14 41 21 17 4 -14 7 -40 8 -57z m55 61 c4 -9 9 -14 13 -10 7 7 53 -32 53 -45 0 -18 -54 0 -67 22 -8 14 -12 16 -9 6 3 -10 6 -27 6 -36 0 -14 6 -17 25 -13 30 5 31 1 5 -23 -19 -17 -20 -17 -34 16 -13 28 -15 30 -16 12 0 -13 -4 -23 -10 -23 -5 0 -10 21 -9 48 1 38 2 42 9 22 7 -22 8 -22 11 -5 1 11 2 26 2 33 -1 18 14 15 21 -4z m1586 -24 c15 0 20 -31 7 -50 -18 -30 -24 -25 -29 23 -5 42 3 78 10 45 2 -10 7 -18 12 -18z m-1680 1 c-1 -17 -21 -34 -44 -37 -32 -3 -32 3 -5 32 19 20 49 23 49 5z m280 -66 l-24 -26 -25 25 -25 25 24 26 24 26 25 -25 25 -25 -24 -26z m530 0 l-24 -26 -25 25 -25 25 24 26 24 26 25 -25 25 -25 -24 -26z m650 0 l-24 -26 -24 26 -24 26 23 25 23 25 25 -25 25 -25 -24 -26z m400 25 c0 -27 -2 -50 -5 -50 -2 0 -16 12 -30 26 l-26 26 23 24 c13 13 26 24 31 24 4 0 7 -22 7 -50z m-1990 20 c14 -10 23 -20 20 -22 -3 -2 -15 -12 -28 -22 -22 -19 -22 -19 -47 4 l-24 23 22 18 c27 23 27 23 57 -1z m535 0 c18 -20 18 -21 -3 -40 -27 -25 -34 -25 -57 0 -17 19 -17 21 0 40 23 25 37 25 60 0z m261 1 l23 -18 -23 -22 c-28 -26 -38 -26 -54 -1 -10 16 -10 24 0 40 16 25 24 25 54 1z m269 -1 c17 -19 17 -21 0 -40 -10 -11 -23 -20 -30 -20 -7 0 -20 9 -30 20 -17 19 -17 21 0 40 10 11 23 20 30 20 7 0 20 -9 30 -20z m148 3 c14 -16 14 -20 -3 -40 -22 -28 -32 -29 -55 -3 -17 19 -17 21 0 40 22 25 37 25 58 3z m262 -3 c18 -20 18 -21 -2 -42 -21 -20 -23 -20 -47 -4 -32 20 -32 30 -4 50 29 20 31 20 53 -4z m395 -27 c0 -10 -32 -43 -42 -43 -12 0 -10 24 4 38 13 13 38 16 38 5z m-1743 -18 c8 -23 -4 -30 -22 -12 -19 20 -19 27 0 27 9 0 18 -7 22 -15z m359 -44 c-9 -14 -73 -14 -81 0 -4 6 3 22 16 35 l23 25 24 -25 c14 -13 21 -29 18 -35z m530 0 c-9 -14 -73 -14 -81 0 -4 6 3 22 16 35 l23 25 24 -25 c14 -13 21 -29 18 -35z m530 0 c-10 -15 -73 -14 -79 2 -2 6 5 22 16 35 l21 23 24 -25 c14 -13 21 -29 18 -35z m-1602 30 c14 -16 15 -20 2 -30 -20 -17 -36 -6 -36 25 0 29 11 31 34 5z m134 -16 l27 -25 -53 0 c-28 0 -52 2 -52 5 0 9 34 45 43 45 4 0 20 -11 35 -25z m260 6 c12 -11 22 -22 22 -25 0 -3 -23 -6 -52 -6 l-51 0 23 25 c28 30 29 30 58 6z m272 -6 l23 -25 -51 0 c-29 0 -52 3 -52 6 0 7 42 43 51 44 3 0 16 -11 29 -25z m258 6 c12 -11 22 -22 22 -25 0 -3 -23 -6 -52 -6 l-51 0 23 25 c28 30 29 30 58 6z m272 -6 l23 -25 -51 0 c-29 0 -52 3 -52 6 0 8 41 44 50 44 3 0 17 -11 30 -25z m263 5 c9 -11 17 -22 17 -25 0 -3 -23 -5 -52 -5 l-51 0 23 25 c28 30 40 31 63 5z m265 1 c12 -11 22 -22 22 -25 0 -3 -23 -6 -52 -6 l-51 0 23 25 c28 30 29 30 58 6z m272 -6 l23 -25 -51 0 c-29 0 -52 2 -52 5 0 10 35 45 45 45 7 0 22 -11 35 -25z m-1722 -3 c-4 -19 -54 -28 -77 -13 -23 15 -4 29 39 29 33 1 41 -2 38 -16z m1597 -2 c0 -24 -79 -21 -83 3 -3 16 2 18 40 15 30 -2 43 -7 43 -18z"/> <path d="M2188 3265 c3 -21 7 -23 23 -14 24 12 25 21 2 12 -16 -6 -16 -5 -4 10 12 15 11 17 -6 17 -16 0 -19 -5 -15 -25z"/> <path d="M2253 3228 c-23 -30 -22 -36 6 -40 20 -3 27 0 24 8 -2 7 -12 10 -20 7 -13 -5 -13 -3 -4 15 13 24 9 29 -6 10z"/> <path d="M1460 2881 c-49 -10 -110 -44 -144 -80 -16 -17 -28 -32 -25 -34 2 -2 29 -14 61 -26 44 -18 61 -20 76 -12 12 6 31 11 44 11 13 0 50 14 82 30 39 20 74 30 104 30 39 0 43 2 31 16 -38 45 -158 79 -229 65z m90 -30 c0 -5 -6 -14 -13 -20 -11 -8 -18 -6 -32 9 -18 20 -17 20 13 20 18 0 32 -4 32 -9z m-51 -48 c13 -8 -26 -33 -50 -33 -15 0 -30 -4 -33 -9 -7 -10 -76 8 -76 20 0 9 54 49 66 49 4 0 -2 -9 -14 -20 -12 -12 -22 -26 -22 -32 0 -9 3 -9 12 0 9 9 15 9 27 -1 12 -10 14 -9 8 6 -4 11 0 28 11 42 l17 23 25 -21 c14 -12 27 -23 29 -24z"/> <path d="M1603 2759 c-42 -12 -42 -25 -1 -33 40 -8 126 -95 135 -136 3 -17 6 -30 8 -30 1 0 17 8 36 17 19 9 55 17 81 17 l47 0 -15 35 c-33 78 -111 132 -198 137 -33 2 -76 -1 -93 -7z m207 -69 c0 -15 -21 -12 -42 7 -28 25 -21 35 12 18 17 -9 30 -20 30 -25z m-51 -3 c19 -22 20 -25 6 -37 -8 -7 -17 -11 -18 -9 -1 2 -10 14 -21 26 -17 20 -15 43 3 43 4 0 17 -11 30 -23z m86 -33 c9 -14 14 -28 11 -32 -9 -8 -56 39 -50 49 9 15 21 10 39 -17z m-36 -18 c9 -11 6 -16 -19 -24 -32 -12 -42 2 -18 26 16 16 23 15 37 -2z"/> <path d="M1176 2720 c-47 -15 -91 -51 -126 -102 -18 -26 -31 -50 -28 -53 3 -3 20 3 39 12 20 10 57 17 89 17 32 0 69 -7 89 -17 19 -9 35 -16 36 -15 0 2 10 22 20 46 10 24 32 54 48 68 l28 24 -28 11 c-39 15 -132 20 -167 9z m57 -38 c16 -17 15 -20 -8 -42 l-25 -23 -25 23 c-27 25 -25 37 9 50 30 12 31 12 49 -8z m60 10 c17 -7 17 -8 0 -27 -10 -11 -23 -30 -28 -42 -7 -17 -14 -20 -25 -13 -13 8 -11 14 13 35 29 28 36 48 13 39 -8 -3 -17 -1 -21 5 -7 12 20 14 48 3z"/> <path d="M1007 2696 c-128 -35 -223 -168 -201 -282 l6 -33 36 20 c20 10 42 19 49 19 18 0 77 97 92 152 7 26 29 65 47 87 49 57 48 58 -29 37z m-17 -53 c0 -9 -25 -53 -30 -53 -4 0 -15 9 -24 19 -16 17 -16 20 -2 28 14 8 56 13 56 6z m-80 -50 c0 -4 -10 -18 -22 -32 l-23 -26 27 24 c24 21 28 22 42 8 20 -20 20 -24 -3 -52 l-18 -24 -28 29 c-27 28 -27 30 -11 55 15 23 36 34 36 18z m-28 -90 c24 -21 23 -40 -3 -53 -32 -18 -51 -5 -43 27 12 49 17 52 46 26z"/> <path d="M1433 2695 c-30 -13 -31 -16 -23 -47 5 -18 16 -80 26 -138 9 -58 22 -108 28 -112 33 -22 36 -9 36 152 0 178 1 175 -67 145z m37 -51 c0 -31 -2 -35 -15 -24 -25 21 -19 49 13 59 1 1 2 -15 2 -35z m-1 -111 c0 -31 -2 -34 -9 -18 -12 28 -12 55 0 55 6 0 10 -17 9 -37z"/> <path d="M1520 2550 c0 -168 0 -168 44 -151 16 6 25 34 47 140 l27 133 -42 19 c-78 35 -76 39 -76 -141z m78 93 c4 -29 -23 -31 -38 -4 -15 28 -13 33 13 29 14 -2 23 -11 25 -25z m-14 -105 c-9 -31 -14 -35 -24 -18 -5 9 -5 19 2 27 17 21 30 15 22 -9z"/> <path d="M1900 2696 c0 -10 54 -111 61 -114 4 -2 27 -16 51 -32 23 -16 64 -34 90 -40 27 -7 58 -24 74 -41 38 -40 48 -37 40 12 -20 124 -131 218 -258 219 -32 0 -58 -2 -58 -4z m120 -36 c13 -8 13 -11 -3 -27 -16 -17 -18 -16 -44 10 l-28 27 30 0 c17 0 37 -5 45 -10z m66 -31 l23 -21 -25 -25 -25 -25 -24 22 c-23 22 -23 24 -7 46 21 29 30 29 58 3z m66 -66 c26 -24 24 -46 -4 -37 -45 14 -68 24 -68 29 0 4 4 4 9 0 6 -3 16 1 23 9 17 19 18 19 40 -1z"/> <path d="M1347 2628 c-41 -56 -49 -94 -29 -136 16 -35 72 -82 97 -82 8 0 5 35 -9 125 -12 69 -24 125 -28 125 -4 0 -18 -15 -31 -32z m23 -88 c0 -10 5 -31 12 -45 13 -30 5 -43 -17 -25 -12 10 -13 16 -4 27 9 11 9 12 -3 8 -16 -6 -28 19 -21 43 7 19 33 14 33 -8z"/> <path d="M1650 2618 c0 -18 -9 -71 -20 -118 -10 -46 -18 -86 -16 -87 1 -1 18 6 36 16 24 12 40 32 53 64 l19 47 -27 55 c-30 62 -45 70 -45 23z m33 -95 c-7 -3 -10 -10 -8 -16 6 -15 -12 -44 -21 -34 -4 4 -2 18 4 32 7 14 12 36 13 48 0 22 1 21 12 -2 9 -19 9 -25 0 -28z"/> <path d="M1064 2541 c-23 -10 -43 -23 -45 -27 -2 -5 47 -59 109 -120 l112 -110 16 23 c8 14 14 30 12 37 -7 30 -134 215 -148 215 -8 0 -34 -8 -56 -18z m46 -19 c0 -11 -41 -34 -48 -27 -4 4 2 13 12 21 22 15 36 18 36 6z m35 -38 c15 -23 15 -28 3 -40 -12 -12 -17 -11 -38 11 -19 20 -21 27 -10 40 17 21 25 19 45 -11z m95 -149 c0 -3 -4 -5 -10 -5 -5 0 -10 5 -10 11 0 6 -14 22 -30 36 -25 20 -28 28 -19 40 10 12 17 7 41 -31 15 -25 28 -48 28 -51z"/> <path d="M1223 2465 c34 -52 65 -95 68 -95 16 0 18 80 4 114 -16 37 -74 76 -114 76 -17 0 -10 -15 42 -95z m47 9 c15 -37 12 -42 -10 -15 -22 26 -26 41 -10 41 6 0 15 -12 20 -26z"/> <path d="M1784 2541 c-31 -14 -45 -28 -57 -58 -16 -40 -11 -103 8 -110 6 -1 32 30 58 70 26 39 55 82 64 95 15 21 14 22 -8 22 -13 0 -42 -9 -65 -19z m-6 -73 c-12 -18 -24 -26 -26 -20 -5 15 28 63 39 56 5 -3 -1 -19 -13 -36z"/> <path d="M1889 2538 c-7 -13 -41 -63 -76 -111 -34 -48 -63 -92 -63 -96 0 -4 8 -15 18 -24 16 -15 25 -8 129 93 118 115 117 113 56 144 -42 21 -50 20 -64 -6z m61 -42 c-1 -16 -48 -48 -60 -41 -15 9 -12 19 10 43 20 21 50 20 50 -2z m-77 -69 c2 -6 -15 -32 -39 -56 -31 -30 -44 -39 -44 -27 0 9 7 19 15 22 8 4 15 10 15 16 0 12 33 57 41 58 4 0 9 -6 12 -13z"/> <path d="M977 2467 c-40 -61 -37 -66 88 -150 98 -66 118 -76 135 -67 11 6 19 14 19 18 -1 4 -52 56 -114 115 l-112 108 -16 -24z m62 -58 c47 -47 40 -65 -11 -31 -22 15 -25 21 -15 31 10 11 8 12 -10 6 -18 -5 -22 -3 -17 9 9 23 18 20 53 -15z m86 -79 c10 -11 16 -22 14 -25 -7 -6 -49 24 -49 36 0 15 16 10 35 -11z"/> <path d="M1915 2380 c-101 -102 -108 -111 -93 -126 15 -15 20 -14 70 17 155 98 178 115 178 131 0 20 -31 88 -40 88 -3 0 -55 -49 -115 -110z m125 30 c0 -14 -52 -42 -67 -35 -13 5 -11 11 12 35 22 23 32 27 42 19 7 -6 13 -15 13 -19z m-90 -63 c0 -8 -11 -19 -25 -25 -38 -18 -41 -15 -15 13 26 28 40 32 40 12z"/> <path d="M2080 2473 c1 -5 7 -19 15 -33 19 -34 19 -143 0 -180 -15 -29 -15 -30 18 -44 18 -7 50 -28 69 -45 20 -17 38 -28 41 -24 2 4 10 32 18 61 23 93 -17 191 -100 243 -46 30 -61 35 -61 22z m130 -165 c0 -28 -20 -31 -46 -7 l-24 23 22 23 22 24 13 -23 c7 -13 12 -31 13 -40z m-41 -55 c-12 -14 -35 -17 -42 -5 -3 4 -1 18 4 31 9 23 10 23 29 6 15 -14 17 -21 9 -32z m47 -9 c-6 -45 -12 -52 -32 -32 -18 18 -11 38 12 38 8 0 13 3 13 8 -2 12 1 22 6 22 3 0 3 -16 1 -36z"/> <path d="M849 2362 c-55 -36 -74 -57 -95 -107 -19 -45 -21 -136 -4 -180 l11 -29 23 50 c25 53 71 99 124 121 37 16 36 11 17 56 -8 20 -15 55 -15 77 0 22 -4 40 -8 40 -4 0 -28 -13 -53 -28z m31 -46 c0 -32 -18 -43 -38 -22 -15 14 -15 17 3 31 28 20 35 19 35 -9z m-54 -75 c-19 -19 -29 -22 -37 -14 -8 8 -6 19 7 42 17 29 19 30 36 14 18 -16 18 -18 -6 -42z m54 2 c0 -11 -61 -45 -68 -39 -3 3 6 14 19 25 24 21 49 27 49 14z m-91 -85 c-12 -22 -33 -24 -25 -2 3 9 6 22 6 30 0 12 2 12 14 2 10 -9 11 -18 5 -30z"/> <path d="M1415 2356 c47 -41 51 -42 64 -17 9 16 5 20 -32 30 -23 7 -49 15 -57 17 -8 3 3 -10 25 -30z"/> <path d="M1610 2380 c-8 -4 -30 -12 -48 -17 -30 -7 -32 -10 -19 -27 13 -18 15 -17 55 10 49 35 59 61 12 34z"/> <path d="M1694 2351 c3 -18 6 -46 6 -62 0 -24 4 -29 25 -29 14 0 25 2 25 4 0 2 -14 30 -31 62 -27 50 -31 54 -25 25z"/> <path d="M945 2333 c12 -69 35 -104 79 -123 40 -17 96 -12 119 9 4 4 -33 35 -82 70 -50 34 -93 66 -96 71 -15 24 -27 8 -20 -27z m125 -83 c23 -18 23 -20 5 -19 -20 0 -55 21 -55 33 0 12 25 5 50 -14z"/> <path d="M1298 2318 c-15 -29 -27 -53 -25 -54 1 -1 11 -4 22 -6 16 -2 20 5 27 51 5 30 7 55 6 57 -2 1 -16 -20 -30 -48z"/> <path d="M1350 2336 c0 -18 -3 -47 -6 -63 -6 -28 -3 -31 34 -40 39 -10 40 -10 57 26 l17 35 -44 38 c-23 21 -46 38 -50 38 -5 0 -8 -15 -8 -34z m63 -62 c-9 -24 -43 -17 -43 9 0 13 3 26 6 30 10 9 43 -25 37 -39z"/> <path d="M1612 2330 l-43 -39 16 -31 c15 -29 20 -31 48 -26 17 4 35 10 40 15 10 10 0 121 -11 121 -4 -1 -26 -18 -50 -40z m38 -40 c0 -23 -4 -30 -20 -30 -25 0 -26 28 -2 46 23 18 22 18 22 -16z"/> <path d="M1974 2296 c-51 -33 -94 -65 -95 -70 -2 -5 15 -14 38 -21 36 -11 47 -10 82 5 22 11 46 31 54 47 19 36 32 103 21 102 -5 -1 -50 -29 -100 -63z m56 -25 c0 -12 -40 -41 -57 -41 -21 0 -15 26 10 38 28 14 47 15 47 3z"/> <path d="M1471 2274 l-34 -65 34 -29 c19 -16 36 -29 39 -29 3 0 20 13 39 29 l35 29 -35 66 c-18 36 -36 65 -39 65 -3 0 -20 -30 -39 -66z m59 -25 c11 -26 11 -33 -4 -47 -15 -15 -17 -15 -32 0 -15 14 -15 21 -4 47 7 17 16 31 20 31 4 0 13 -14 20 -31z"/> <path d="M1215 2223 c-11 -8 -33 -22 -50 -30 -29 -14 -29 -14 24 -9 63 6 67 9 55 35 -8 18 -11 19 -29 4z"/> <path d="M1260 2238 c0 -2 11 -34 24 -73 l22 -70 45 4 c24 1 45 4 45 4 1 1 4 23 8 49 l7 46 -48 15 c-53 17 -103 29 -103 25z m102 -55 c28 -8 16 -47 -14 -51 -19 -2 -27 2 -32 20 -10 40 -7 51 12 43 9 -4 25 -10 34 -12z"/> <path d="M1673 2219 l-63 -20 7 -47 c3 -26 6 -48 7 -49 1 0 21 -3 46 -4 l44 -4 22 73 c15 48 18 72 11 71 -7 0 -40 -9 -74 -20z m37 -31 c-1 -37 -14 -58 -36 -58 -33 0 -34 47 -1 60 31 12 37 12 37 -2z"/> <path d="M1775 2220 c-8 -27 -11 -25 53 -37 57 -11 68 -4 25 14 -16 7 -38 19 -50 28 -20 15 -22 15 -28 -5z"/> <path d="M2270 2195 c0 -15 -7 -40 -16 -56 -13 -26 -14 -39 -3 -82 6 -29 23 -74 37 -101 14 -27 28 -74 31 -105 l6 -56 35 55 c33 52 35 59 35 145 0 97 -8 117 -79 193 -36 39 -46 40 -46 7z m30 -79 c-25 -25 -34 -16 -19 17 9 20 14 23 25 14 10 -10 9 -16 -6 -31z m49 -20 c11 -19 10 -27 0 -45 -17 -27 -27 -26 -50 1 -23 26 -23 27 -1 49 23 24 36 23 51 -5z m31 -97 c0 -24 -23 -21 -28 4 -2 10 3 17 12 17 10 0 16 -9 16 -21z m-20 -76 c0 -12 -4 -23 -8 -23 -11 0 -32 45 -32 67 0 14 2 14 20 -2 11 -10 20 -29 20 -42z"/> <path d="M915 2181 c-22 -10 -48 -27 -57 -37 -17 -19 -15 -20 90 -38 59 -10 117 -22 130 -27 30 -12 29 6 -4 55 -24 35 -75 66 -106 66 -7 0 -31 -9 -53 -19z m85 -27 c0 -8 5 -12 10 -9 13 8 42 -14 35 -26 -8 -12 -37 1 -58 26 -16 18 -17 19 -10 1 5 -16 3 -18 -18 -13 -13 4 -31 7 -38 7 -23 0 0 18 29 23 45 8 50 7 50 -9z"/> <path d="M2003 2185 c-29 -12 -73 -66 -73 -89 0 -4 15 -6 33 -2 17 3 74 13 124 22 l93 16 -25 19 c-27 22 -88 49 -107 49 -7 -1 -28 -7 -45 -15z m75 -21 c12 -4 22 -10 22 -15 0 -13 -53 -5 -58 9 -4 13 2 15 36 6z m-43 -14 c6 -10 -44 -35 -53 -26 -8 8 19 36 34 36 7 0 16 -5 19 -10z"/> <path d="M679 2163 c-40 -45 -54 -87 -54 -168 0 -90 14 -126 73 -187 41 -43 52 -47 52 -18 0 12 7 35 16 52 14 27 14 39 3 92 -7 34 -22 76 -33 95 -11 19 -25 61 -31 94 -10 55 -11 58 -26 40z m6 -143 c18 -20 18 -21 -8 -48 l-27 -27 0 48 c0 52 8 57 35 27z m55 -134 c-6 -6 -18 -2 -35 14 l-25 24 22 23 22 24 13 -37 c9 -25 10 -41 3 -48z m-41 0 c15 -16 19 -26 11 -31 -6 -4 -12 -5 -14 -4 -40 60 -38 79 3 35z"/> <path d="M1430 2162 c0 -11 -3 -27 -6 -36 -5 -13 -1 -13 25 -3 35 13 35 23 3 45 -20 13 -22 13 -22 -6z"/> <path d="M1560 2160 l-24 -18 27 -13 c33 -15 38 -11 29 23 -7 27 -7 27 -32 8z"/> <path d="M1200 2163 c-74 -6 -75 -8 -29 -62 l43 -50 30 16 c17 9 32 17 34 18 6 5 -21 85 -27 83 -3 -1 -26 -3 -51 -5z m33 -66 c-8 -5 -20 -4 -29 3 -20 18 -17 28 9 32 26 4 41 -23 20 -35z"/> <path d="M1756 2147 c-3 -14 -9 -32 -12 -41 -4 -11 5 -21 31 -33 l37 -18 39 45 c21 25 39 48 39 53 0 4 -22 7 -49 7 -27 0 -56 3 -64 6 -10 3 -17 -3 -21 -19z m74 -26 c0 -14 -28 -33 -40 -26 -20 12 -10 35 15 35 14 0 25 -4 25 -9z"/> <path d="M1900 2133 c0 -5 -16 -28 -35 -51 -34 -39 -35 -41 -16 -51 27 -15 31 -14 31 8 0 10 7 35 16 56 8 20 13 40 10 43 -3 3 -6 1 -6 -5z"/> <path d="M1125 2103 c4 -10 9 -35 12 -55 6 -42 9 -44 37 -23 17 13 17 16 -15 54 -35 44 -45 51 -34 24z"/> <path d="M1478 2100 c-97 -28 -104 -161 -12 -205 68 -32 141 7 151 82 2 21 0 50 -6 65 -17 46 -80 73 -133 58z m71 -35 c65 -33 52 -134 -18 -150 -86 -19 -137 83 -70 139 35 30 49 32 88 11z"/> <path d="M1470 2040 c-11 -11 -20 -31 -20 -45 0 -29 32 -65 58 -65 57 0 86 82 40 114 -30 21 -54 20 -78 -4z m71 -26 c9 -11 10 -20 2 -32 -15 -24 -44 -27 -59 -7 -28 38 27 75 57 39z"/> <path d="M2080 2090 c-170 -35 -165 -33 -168 -60 l-3 -25 161 0 c88 0 160 3 160 6 0 22 -34 99 -43 98 -7 0 -55 -9 -107 -19z m104 -26 c14 -36 -9 -49 -35 -18 -10 13 -10 17 2 25 20 12 26 11 33 -7z m-104 -19 c-7 -8 -19 -15 -26 -15 -8 0 -14 7 -14 15 0 10 10 15 26 15 22 0 25 -2 14 -15z"/> <path d="M810 2074 c-26 -67 -31 -64 143 -67 154 -2 157 -2 157 19 0 19 -12 23 -112 42 -62 12 -128 24 -145 28 -29 6 -34 3 -43 -22z m83 -15 c33 -9 52 -29 27 -29 -5 0 -10 5 -10 12 0 9 -3 9 -12 0 -16 -16 -68 -15 -68 1 0 28 10 31 63 16z"/> <path d="M1341 2071 c-11 -7 -10 -13 6 -30 l20 -21 11 25 c7 14 12 28 12 30 0 8 -34 5 -49 -4z"/> <path d="M1630 2076 c0 -2 6 -15 14 -30 l13 -26 19 21 c16 17 16 22 4 29 -15 10 -50 14 -50 6z"/> <path d="M1226 2030 l-69 -38 70 -35 69 -35 27 33 c15 19 27 38 27 42 -1 4 -13 22 -28 40 l-27 31 -69 -38z m84 -35 c0 -28 -26 -36 -60 -19 l-33 17 34 18 c35 18 59 11 59 -16z"/> <path d="M1715 2056 c-51 -69 -49 -62 -19 -100 l28 -35 68 36 c37 19 68 37 68 39 0 3 -49 30 -130 71 -3 2 -10 -3 -15 -11z m55 -41 c17 -9 30 -17 30 -20 0 -2 -14 -11 -32 -19 -27 -14 -34 -14 -46 -2 -11 11 -11 18 -3 35 14 25 14 25 51 6z"/> <path d="M805 1934 c7 -25 16 -48 19 -51 2 -3 68 8 145 23 133 26 141 29 141 51 l0 23 -160 0 -159 0 14 -46z m105 7 c0 -5 -14 -14 -31 -21 -26 -11 -32 -11 -40 1 -14 23 -11 28 24 31 35 4 47 1 47 -11z m110 10 c0 -9 -33 -21 -59 -21 -11 0 -11 3 -1 15 13 16 60 21 60 6z"/> <path d="M1140 1956 c0 -14 -5 -37 -10 -52 -16 -40 -7 -39 28 5 l31 39 -24 16 c-24 16 -25 16 -25 -8z"/> <path d="M1852 1962 l-23 -18 21 -19 c12 -11 29 -33 37 -48 18 -36 27 -29 12 9 -7 16 -15 43 -18 61 -6 32 -6 32 -29 15z"/> <path d="M1910 1961 c0 -11 4 -23 10 -26 10 -6 244 -54 266 -55 11 0 44 68 44 90 0 6 -62 10 -160 10 -152 0 -160 -1 -160 -19z m178 -13 c27 -27 4 -31 -58 -12 -13 5 -13 6 0 14 21 13 44 12 58 -2z m102 -7 c0 -27 -17 -35 -36 -17 -18 19 -10 36 17 36 12 0 19 -7 19 -19z"/> <path d="M1347 1946 c-23 -34 -22 -36 13 -36 33 0 35 4 16 38 l-13 24 -16 -26z"/> <path d="M1643 1940 c-11 -30 -11 -30 23 -30 40 0 42 9 11 38 l-23 22 -11 -30z"/> <path d="M2240 1901 c-15 -47 -71 -104 -123 -126 l-37 -15 15 -36 c8 -20 15 -56 15 -80 0 -24 2 -44 5 -44 17 0 84 42 106 67 43 48 49 59 59 111 9 51 -4 162 -20 162 -4 0 -13 -18 -20 -39z m-6 -100 c8 -12 -41 -54 -54 -46 -8 5 -5 15 11 31 24 25 35 29 43 15z m16 -34 c0 -22 -26 -51 -39 -42 -9 5 -7 13 10 31 26 28 29 29 29 11z m-86 -48 c-22 -24 -30 -24 -37 1 -6 25 22 44 41 28 10 -9 9 -15 -4 -29z m42 -10 c10 -17 -31 -53 -52 -45 -15 6 -15 9 6 31 26 28 35 30 46 14z"/> <path d="M1172 1891 c-18 -22 -32 -45 -32 -50 0 -6 17 -11 38 -11 20 0 46 -3 57 -6 16 -4 23 2 33 29 17 48 16 52 -21 65 -44 16 -39 18 -75 -27z m66 1 c21 -14 3 -44 -22 -36 -29 9 -31 11 -16 29 14 17 20 18 38 7z"/> <path d="M1770 1917 c-14 -6 -26 -12 -28 -13 -2 -1 3 -20 10 -42 l12 -41 51 6 c79 8 80 8 38 58 -40 48 -44 50 -83 32z m50 -32 c13 -16 6 -35 -15 -35 -18 0 -28 17 -21 35 7 19 20 19 36 0z"/> <path d="M1075 1900 c-11 -4 -67 -15 -124 -26 l-104 -18 34 -28 c68 -57 147 -45 194 29 30 48 30 54 0 43z m-69 -51 c3 -6 2 -15 -4 -21 -12 -12 -84 1 -76 14 3 5 17 7 30 4 14 -4 24 -2 24 4 0 13 17 13 26 -1z"/> <path d="M1930 1895 c0 -4 10 -24 21 -45 28 -49 81 -69 136 -51 36 11 91 48 82 55 -2 1 -47 11 -99 20 -52 10 -105 20 -117 23 -13 3 -23 2 -23 -2z m100 -44 c0 -15 -16 -22 -34 -15 -25 9 -19 24 9 24 14 0 25 -4 25 -9z m44 -7 c22 -9 10 -24 -20 -24 -23 0 -31 10 -17 23 8 9 17 9 37 1z"/> <path d="M1291 1843 c-7 -27 -17 -58 -22 -70 -11 -29 -2 -29 80 -2 61 21 63 22 57 52 -3 16 -6 37 -6 47 0 13 -10 17 -48 19 l-48 1 -13 -47z m81 -8 c6 -28 5 -29 -34 -39 -30 -7 -33 -1 -18 38 13 34 46 35 52 1z"/> <path d="M1620 1863 c0 -16 -3 -37 -6 -49 -5 -18 3 -23 66 -43 39 -13 73 -21 75 -19 1 1 -7 33 -18 71 l-20 67 -48 0 c-47 0 -49 -1 -49 -27z m88 -35 c6 -17 10 -33 9 -35 -2 -1 -16 1 -33 5 -22 6 -30 15 -32 35 -3 23 1 27 20 27 17 0 27 -9 36 -32z"/> <path d="M1428 1840 c5 -35 6 -36 39 -10 l25 20 -27 10 c-39 15 -42 13 -37 -20z"/> <path d="M1563 1863 c-13 -2 -23 -8 -23 -13 0 -8 42 -42 45 -37 8 9 14 57 8 56 -5 -1 -18 -4 -30 -6z"/> <path d="M785 1795 c-29 -101 9 -199 100 -260 31 -20 59 -35 61 -32 3 3 -4 20 -15 38 -25 41 -28 123 -6 176 20 48 20 50 -16 57 -17 3 -47 22 -66 41 -19 19 -36 35 -38 35 -2 0 -11 -25 -20 -55z m98 -42 c9 -3 17 -12 17 -19 0 -20 -12 -17 -39 11 -24 26 -43 27 -22 2 8 -11 7 -18 -7 -31 -10 -9 -22 -13 -25 -9 -13 12 -7 54 8 59 8 4 12 11 8 18 -4 6 4 3 17 -7 14 -10 33 -20 43 -24z m-5 -73 c5 -45 -12 -60 -38 -32 -24 26 -25 30 -3 54 23 25 37 18 41 -22z"/> <path d="M1471 1809 l-33 -31 27 -51 c47 -89 49 -89 86 -14 l33 67 -34 30 c-19 16 -37 29 -40 29 -3 0 -20 -13 -39 -30z m64 -30 c8 -12 -13 -69 -25 -69 -11 0 -31 60 -24 71 7 12 41 11 49 -2z"/> <path d="M1150 1804 c19 -9 47 -24 61 -35 28 -20 39 -16 39 11 0 13 -12 19 -50 24 -28 4 -58 9 -68 12 -9 2 -1 -3 18 -12z"/> <path d="M1827 1807 c-43 -8 -56 -14 -52 -25 3 -7 5 -18 5 -23 0 -6 12 -2 28 9 15 10 45 26 67 35 45 18 36 19 -48 4z"/> <path d="M1014 1775 c-29 -13 -52 -47 -69 -104 -9 -29 -10 -29 99 43 65 43 85 61 75 67 -20 12 -69 10 -105 -6z"/> <path d="M1898 1783 c-31 -8 -20 -22 67 -79 47 -31 87 -60 91 -65 14 -23 24 -6 18 29 -17 96 -83 139 -176 115z m96 -33 c14 -5 26 -16 26 -25 0 -19 -5 -19 -41 2 -46 28 -36 43 15 23z"/> <path d="M1380 1755 c-22 -7 -35 -18 -34 -28 0 -10 1 -37 2 -62 1 -25 5 -45 10 -45 4 0 27 18 51 38 l43 38 -18 36 c-19 35 -20 35 -54 23z m34 -40 c4 -13 -20 -35 -38 -35 -8 0 -7 35 1 43 11 12 31 8 37 -8z"/> <path d="M1588 1732 l-21 -35 44 -38 c24 -21 47 -39 50 -39 7 0 19 62 19 100 0 20 -7 27 -35 36 -34 11 -36 10 -57 -24z m60 -30 c4 -23 -4 -27 -27 -13 -17 11 -7 45 12 39 6 -3 13 -14 15 -26z"/> <path d="M1063 1697 c-51 -34 -99 -66 -107 -72 -14 -9 -13 -16 3 -63 10 -29 21 -55 25 -59 5 -6 231 203 235 217 1 6 -54 41 -61 39 -1 0 -44 -29 -95 -62z m107 15 c-7 -3 -25 -18 -38 -34 -20 -23 -27 -26 -39 -17 -12 10 -7 17 29 39 24 15 47 25 53 22 5 -3 3 -8 -5 -10z m-101 -75 c8 -11 5 -19 -14 -37 -20 -19 -27 -21 -40 -10 -14 12 -13 15 6 37 26 27 32 28 48 10z"/> <path d="M1819 1734 c-11 -13 3 -30 97 -125 60 -60 111 -109 115 -109 6 0 35 62 41 86 3 11 -213 164 -231 164 -5 0 -14 -7 -22 -16z m131 -86 c0 -19 -29 -5 -61 28 l-34 36 47 -29 c26 -15 48 -31 48 -35z m56 -36 c26 -21 37 -49 22 -58 -7 -5 -8 -2 -3 6 6 10 4 12 -7 7 -19 -7 -63 36 -53 52 9 15 16 14 41 -7z"/> <path d="M1270 1727 c0 -2 14 -28 31 -58 28 -50 30 -51 25 -20 -3 18 -6 44 -6 57 0 19 -5 24 -25 24 -14 0 -25 -2 -25 -3z"/> <path d="M1700 1701 c0 -16 -2 -44 -6 -62 l-5 -34 15 33 c9 18 25 47 36 63 l21 29 -30 0 c-27 0 -31 -3 -31 -29z"/> <path d="M1127 1592 c-59 -59 -107 -111 -107 -114 0 -4 18 -17 40 -28 l39 -20 33 47 c18 26 42 62 53 80 11 18 33 50 48 71 25 35 29 72 8 72 -3 0 -55 -48 -114 -108z m6 -62 c-18 -30 -25 -35 -36 -24 -9 9 25 53 41 54 10 0 9 -8 -5 -30z"/> <path d="M1767 1682 c-16 -18 -13 -25 59 -135 42 -64 81 -117 85 -117 11 0 99 41 99 45 0 3 -223 225 -226 225 0 0 -8 -8 -17 -18z m91 -94 c8 -10 9 -18 3 -22 -9 -6 -61 59 -61 77 0 8 33 -23 58 -55z m102 -111 c0 -14 -41 4 -66 28 -17 17 -20 25 -11 34 8 8 20 3 44 -21 18 -18 33 -36 33 -41z"/> <path d="M1460 1674 c0 -5 -20 -22 -45 -39 -49 -33 -61 -52 -17 -29 15 7 42 17 60 20 17 3 32 9 32 13 -1 10 -30 45 -30 35z"/> <path d="M1543 1652 c-10 -16 -6 -20 31 -30 22 -6 50 -14 61 -18 11 -4 -1 9 -27 29 -26 21 -48 37 -50 37 -2 0 -8 -8 -15 -18z"/> <path d="M1202 1536 l-71 -106 37 0 c56 1 104 29 125 73 19 40 16 91 -7 122 -10 14 -22 2 -84 -89z m75 8 c-8 -45 -12 -50 -32 -34 -13 11 -13 15 2 41 24 40 37 36 30 -7z"/> <path d="M1724 1603 c-3 -16 -7 -34 -10 -41 -2 -7 3 -30 12 -51 17 -43 79 -84 119 -79 24 3 23 5 -38 100 -34 53 -65 97 -69 97 -4 1 -10 -11 -14 -26z m51 -69 c9 -14 14 -28 11 -31 -6 -6 -45 37 -46 50 0 16 19 6 35 -19z"/> <path d="M2151 1580 c-36 -18 -58 -37 -66 -56 -6 -16 -19 -35 -28 -43 -10 -7 -17 -21 -17 -31 0 -30 -28 -87 -61 -125 l-31 -35 27 0 c79 0 176 64 216 142 21 41 39 179 23 177 -5 -1 -33 -14 -63 -29z m39 -50 c0 -30 -24 -43 -33 -17 -2 6 -8 9 -12 5 -5 -5 2 -16 14 -27 l22 -19 -23 -27 -23 -26 -25 25 -24 26 44 45 c24 25 48 45 52 45 4 0 8 -13 8 -30z m-87 -140 c3 -11 2 -18 -3 -15 -4 3 -13 -2 -20 -10 -7 -8 -19 -15 -27 -15 -8 0 -11 -4 -8 -10 3 -5 0 -10 -8 -10 -11 0 -8 12 11 50 25 52 43 55 55 10z"/> <path d="M1440 1518 c-6 -40 -18 -101 -26 -136 -8 -35 -14 -65 -14 -68 0 -7 67 -34 85 -34 13 0 15 22 15 155 l0 155 -24 0 c-22 0 -25 -6 -36 -72z m26 -86 c-13 -12 -17 8 -10 40 l9 33 3 -33 c2 -19 1 -36 -2 -40z m4 -87 c0 -33 -2 -35 -20 -25 -24 13 -24 14 -8 40 19 30 28 24 28 -15z"/> <path d="M1520 1435 c0 -172 -2 -168 65 -141 19 8 35 21 35 29 0 8 -9 56 -20 108 -11 52 -20 109 -20 127 0 29 -3 32 -30 32 l-30 0 0 -155z m54 -47 c20 -39 20 -52 1 -68 -12 -10 -16 -9 -21 5 -4 10 -2 26 5 36 7 12 7 19 1 19 -5 0 -10 9 -10 20 0 28 6 25 24 -12z"/> <path d="M1390 1569 c-35 -14 -60 -39 -75 -76 -17 -39 -4 -88 35 -134 l26 -32 25 126 c14 70 23 127 20 126 -3 0 -17 -5 -31 -10z m-11 -71 c-6 -18 -15 -41 -20 -50 -6 -12 -6 -18 1 -18 5 0 10 -7 10 -15 0 -25 -15 -17 -26 13 -13 33 -1 77 17 66 8 -4 9 -3 5 4 -8 13 0 32 14 32 5 0 4 -14 -1 -32z"/> <path d="M1600 1576 c0 -2 9 -48 20 -103 11 -54 20 -108 20 -120 0 -34 12 -28 41 20 39 62 41 76 23 122 -11 30 -27 48 -54 64 -37 21 -50 25 -50 17z m70 -77 c0 -10 5 -19 11 -19 7 0 8 -12 4 -32 -10 -44 -16 -53 -26 -37 -14 23 -11 52 5 46 10 -4 13 -1 10 8 -3 7 -12 16 -20 19 -8 3 -14 14 -14 25 0 14 5 19 15 15 8 -4 15 -15 15 -25z"/> <path d="M806 1513 c11 -64 42 -119 88 -159 51 -45 104 -64 180 -64 l55 0 -29 59 c-21 41 -38 62 -59 71 -16 6 -37 20 -47 31 -9 10 -28 19 -41 19 -30 0 -92 31 -117 59 -28 31 -38 26 -30 -16z m79 -71 c19 -23 25 -36 18 -43 -11 -11 -43 24 -43 47 0 7 -7 14 -15 18 -8 3 -15 10 -15 16 0 16 23 0 55 -38z m134 -42 c19 0 12 -16 -18 -42 -27 -24 -29 -25 -55 -9 -14 8 -26 19 -26 23 0 14 23 9 42 -9 11 -10 18 -12 18 -4 0 6 -7 14 -16 18 -10 4 -14 13 -10 26 3 12 0 28 -7 36 -7 9 5 4 25 -12 20 -15 41 -27 47 -27z m51 -72 c0 -15 -5 -17 -27 -12 -44 11 -46 15 -22 41 22 22 24 23 36 7 7 -10 13 -26 13 -36z"/> <path d="M1246 1413 c-16 -8 -51 -16 -77 -17 -57 -1 -60 -9 -24 -65 59 -95 180 -136 285 -96 30 11 32 14 15 20 -48 16 -62 24 -94 51 -19 15 -44 49 -55 75 l-22 47 -28 -15z m-14 -60 c17 -15 17 -17 2 -35 -22 -24 -28 -23 -49 8 -14 22 -15 28 -4 35 20 13 30 11 51 -8z m71 -36 c28 -44 -15 -75 -59 -43 -18 14 -18 16 -2 32 16 17 19 17 36 1 29 -26 38 -20 12 8 -13 14 -19 25 -13 25 6 0 18 -10 26 -23z"/> <path d="M1737 1403 c-3 -16 -22 -47 -42 -71 l-37 -42 36 -15 c90 -38 209 -1 272 84 31 42 42 71 29 71 -3 0 -18 -8 -32 -17 -37 -24 -150 -24 -186 0 -34 22 -34 22 -40 -10z m36 -57 c5 -13 -31 -56 -46 -56 -12 0 -8 20 9 45 18 28 29 31 37 11z m116 0 c13 -15 1 -29 -35 -40 -25 -8 -49 16 -40 39 7 19 60 20 75 1z m-71 -43 c2 -9 -7 -13 -28 -13 -28 0 -31 2 -20 15 15 18 41 16 48 -2z"/> <path d="M1560 1250 c-30 -9 -76 -26 -102 -38 -27 -13 -67 -22 -95 -22 l-48 -1 33 -28 c35 -30 117 -61 161 -61 59 0 130 30 181 78 l52 47 -64 20 c-59 19 -66 20 -118 5z m65 -69 l-25 -26 -27 27 -26 27 34 14 c30 13 36 12 52 -1 17 -15 17 -17 -8 -41z m-145 -1 c0 -14 -48 -43 -60 -35 -14 9 -13 28 2 23 7 -3 19 1 26 9 16 15 32 17 32 3z m80 -42 c0 -4 -16 -8 -35 -8 -39 0 -42 5 -18 32 15 17 17 17 35 2 10 -10 18 -21 18 -26z"/> </g> </svg> 