<svg width="183" height="198" viewBox="0 0 183 198" fill="none" xmlns="http://www.w3.org/2000/svg">
<g filter="url(#filter0_d_112_440)">
<path d="M12.65 9.77093C12.7724 7.10138 14.9724 5 17.6448 5H155.378C158.033 5 160.225 7.0745 160.371 9.72511L169.71 179.331C169.867 182.196 167.587 184.606 164.717 184.606H9.86592C7.01457 184.606 4.74054 182.225 4.87118 179.377L12.65 9.77093Z" fill="#EA0D0D"/>
<path d="M24.261 11.4758H149.33C151.463 11.4758 153.22 13.1491 153.325 15.2793L161.077 172.838C161.189 175.122 159.368 177.035 157.082 177.035H18.5762C16.3105 177.035 14.4971 175.155 14.5788 172.891L20.2636 15.3316C20.3412 13.18 22.108 11.4758 24.261 11.4758Z" stroke="white" stroke-width="2"/>
</g>
<defs>
<filter id="filter0_d_112_440" x="0.365845" y="0.5" width="181.851" height="196.606" filterUnits="userSpaceOnUse" color-interpolation-filters="sRGB">
<feFlood flood-opacity="0" result="BackgroundImageFix"/>
<feColorMatrix in="SourceAlpha" type="matrix" values="0 0 0 0 0 0 0 0 0 0 0 0 0 0 0 0 0 0 127 0" result="hardAlpha"/>
<feOffset dx="4" dy="4"/>
<feGaussianBlur stdDeviation="4.25"/>
<feComposite in2="hardAlpha" operator="out"/>
<feColorMatrix type="matrix" values="0 0 0 0 0 0 0 0 0 0 0 0 0 0 0 0 0 0 0.25 0"/>
<feBlend mode="normal" in2="BackgroundImageFix" result="effect1_dropShadow_112_440"/>
<feBlend mode="normal" in="SourceGraphic" in2="effect1_dropShadow_112_440" result="shape"/>
</filter>
</defs>
</svg>
